<svg width="2064" height="2064" viewBox="0 0 2064 2064" fill="none" xmlns="http://www.w3.org/2000/svg">
<rect width="2064" height="2064" rx="390" fill="#6D2323"/>
<path fill-rule="evenodd" clip-rule="evenodd" d="M1018.39 414.861C1010.56 423.033 1000.46 434.463 995.936 440.262C991.414 446.061 987.224 451.237 986.626 451.764C983.757 454.289 980.799 459.952 971.104 481.478C968.027 488.309 963.494 508.687 963.494 515.69C963.494 528.314 968.98 543.713 980.166 562.495C986.283 572.762 991.633 582.027 992.053 583.082C992.474 584.136 994.414 587.056 996.366 589.571C998.317 592.086 999.914 595.639 999.914 597.467C999.914 601.53 985.144 620.464 981.978 620.464C980.726 620.464 976.703 618.003 973.036 614.993C969.369 611.983 963.781 608.09 960.618 606.341C957.456 604.593 953.574 602.342 951.993 601.34C946.831 598.067 927.913 590.194 919.249 587.713C914.591 586.377 909.799 584.55 908.601 583.649C905.001 580.948 861.922 574.467 847.521 574.461C840.139 574.457 825.475 576.127 814.935 578.172C790.773 582.858 779.862 587.159 724.847 613.689C691.024 630 684.927 632.49 665.783 637.806C649.776 642.25 620.147 643.682 618.934 640.07C616.557 632.996 604.874 618.992 596.689 613.404C588.274 607.658 586.044 607.045 573.614 607.045C556.153 607.045 545.82 611.96 534.941 625.437C520.941 642.781 521.79 665.726 537.081 683.205C541.779 688.577 545.622 694.159 545.622 695.611C545.622 697.062 542.523 705.549 538.733 714.472C534.943 723.394 529.718 735.871 527.119 742.197C524.52 748.523 520.289 758.099 517.715 763.476C515.14 768.851 513.038 774.027 513.042 774.978C513.043 775.927 511.372 780.154 509.323 784.372C507.276 788.589 501.138 802.823 495.683 816.003C490.227 829.183 483.827 844.28 481.458 849.551C479.089 854.823 473.892 867.332 469.909 877.349C465.926 887.365 460.108 901.168 456.978 908.021C453.849 914.875 447.821 929.082 443.579 939.593C439.339 950.106 435.162 960.027 434.296 961.639C433.431 963.253 429.155 973.201 424.794 983.745C420.431 994.288 415.212 1006.46 413.195 1010.79C411.177 1015.13 409.526 1019.23 409.526 1019.92C409.526 1020.61 407.845 1024.83 405.79 1029.3C403.736 1033.76 398.447 1046.48 394.038 1057.55C389.628 1068.62 383.981 1081.6 381.487 1086.39C376.951 1095.1 376.952 1095.1 380.919 1106.39C396.44 1150.55 425.285 1172.43 476.993 1179.27C506.233 1183.13 629.865 1183.25 665.425 1179.45C706.292 1175.09 724.393 1165.77 747.736 1137.11C754.719 1128.53 766.059 1102.58 766.059 1095.18C766.059 1092.53 764.387 1087.51 762.344 1084.02C760.301 1080.53 753.753 1066.03 747.791 1051.8C741.832 1037.57 735.827 1023.33 734.448 1020.17C732.317 1015.27 710.804 964.152 690.888 916.648C687.794 909.267 683.991 900.209 682.439 896.519C680.886 892.829 678.795 888.312 677.792 886.481C676.788 884.651 675.967 882.3 675.967 881.261C675.967 880.22 673.893 874.818 671.359 869.253C668.825 863.69 664.512 854.229 661.775 848.233C659.038 842.234 656.799 836.172 656.799 834.759C656.799 833.349 655.639 830.49 654.221 828.412C652.802 826.332 649.21 818.16 646.239 810.252C643.266 802.344 639.772 794.149 638.474 792.04C637.176 789.931 635.505 786.049 634.763 783.413C632.723 776.175 607.39 716.658 601.881 706.162C598.023 698.81 597.519 696.41 599.368 694.181C602.205 690.76 607.298 690.582 610.507 693.791C612.219 695.503 621.215 696.17 642.039 696.126C671.175 696.065 671.175 696.065 698.969 687.147C714.256 682.241 734.954 675.098 744.964 671.276C802.858 649.162 851.234 647.782 902.912 666.772C920.33 673.174 936.091 682.32 954.092 696.479C966.467 706.212 966.804 706.718 970.097 720.475C973.745 735.717 982.1 754.957 990.356 767.118C995.56 774.787 995.561 774.787 995.342 820.483C995.122 866.18 995.122 866.18 989.371 870.877C986.208 873.461 980.807 877.914 977.368 880.774C968.18 888.416 964.642 899.27 966.298 914.735C967.573 926.624 968.23 927.957 977.701 937.816C983.231 943.571 988.733 948.279 989.927 948.279C994.213 948.279 995.86 963.236 995.417 998.123C994.968 1033.59 994.968 1033.59 986.122 1061.39C962.568 1135.4 956.9 1164.52 961.422 1188.3C964.707 1205.58 968.888 1216.11 977.314 1228.34C981.688 1234.68 984.23 1240.27 983.55 1242.04C982.919 1243.68 978.794 1245.95 974.385 1247.06C963.616 1249.78 941.835 1263.16 933.158 1272.37C929.284 1276.49 923.959 1284.62 921.323 1290.45C917.959 1297.89 915.159 1301.41 911.923 1302.27C909.178 1303 896.009 1300.67 879.337 1296.51C832.048 1284.7 789.699 1280.47 715.263 1280.1C669.241 1279.88 587.806 1286.2 564.791 1291.79C560.046 1292.94 551.29 1294.52 545.335 1295.3C536.003 1296.52 532.417 1298.34 519.457 1308.44C464.557 1351.22 453.094 1360.25 445.655 1366.61C441.072 1370.52 431.282 1378.51 423.903 1384.35C408.543 1396.51 398.616 1404.59 395.436 1407.53C394.224 1408.65 385.47 1415.46 375.982 1422.67C366.493 1429.87 358.299 1436.4 357.772 1437.18C357.244 1437.95 352.5 1441.85 347.229 1445.85C341.958 1449.85 336.782 1454.1 335.728 1455.29C334.674 1456.49 328.636 1461.23 322.31 1465.84C315.984 1470.44 309.379 1475.79 307.631 1477.71C305.885 1479.63 300.161 1484.03 294.914 1487.49C289.666 1490.95 281.073 1497.63 275.817 1502.35C270.561 1507.07 264.372 1512.23 262.06 1513.81C259.75 1515.39 254.678 1519.59 250.789 1523.14C246.901 1526.7 239.838 1532.28 235.094 1535.54C227.978 1540.44 215.994 1549.99 187.452 1573.54C186.024 1574.71 179.555 1579.83 173.076 1584.9C166.597 1589.97 156.561 1597.83 150.772 1602.37C144.985 1606.91 136.144 1614.59 131.124 1619.45C122.627 1627.68 122 1628.94 122 1637.88C122 1648.72 125.69 1654.82 136.165 1661.29C142.598 1665.27 142.598 1665.27 1035.04 1664.78C1927.48 1664.3 1927.48 1664.3 1935.24 1656.72C1942.2 1649.92 1943 1648.18 1943 1639.85C1943 1627.89 1939.23 1620.8 1929.1 1613.77C1924.62 1610.66 1917.94 1605.37 1914.25 1602.02C1910.56 1598.67 1901.07 1591.08 1893.16 1585.16C1885.26 1579.24 1878.35 1573.86 1877.83 1573.2C1877.3 1572.55 1872.12 1568.32 1866.33 1563.81C1860.53 1559.29 1852.33 1552.74 1848.12 1549.25C1843.9 1545.77 1828.8 1533.73 1814.57 1522.51C1800.34 1511.29 1786.54 1500.15 1783.9 1497.76C1781.27 1495.36 1773.5 1489.17 1766.65 1484.01C1759.8 1478.85 1746.75 1468.56 1737.65 1461.15C1720.66 1447.31 1704.36 1434.31 1687.06 1420.83C1681.65 1416.61 1653.67 1394.18 1624.88 1370.99C1596.09 1347.79 1567.69 1325.05 1561.77 1320.45C1555.85 1315.84 1550.57 1311.53 1550.05 1310.86C1549.52 1310.19 1545.05 1306.83 1540.12 1303.39C1533.58 1298.83 1526.86 1296.33 1515.2 1294.11C1436.12 1279.08 1305.62 1275.69 1233.02 1286.78C1213.25 1289.81 1203.6 1291.95 1178.18 1298.97C1156.59 1304.94 1156.79 1305.01 1148.86 1289.03C1140.59 1272.38 1129.09 1262.54 1104.34 1250.94C1090.23 1244.32 1088.09 1242.68 1088.09 1238.46C1088.09 1235.79 1090.99 1230.01 1094.53 1225.61C1102.14 1216.18 1108.88 1197.32 1110.45 1181.12C1112.6 1158.92 1103.91 1119.96 1082.69 1056.59C1075.63 1035.5 1075.63 1035.51 1075.18 995.358C1074.73 955.211 1074.73 955.211 1087.09 943.032C1101.6 928.737 1106.76 916.535 1104.55 901.793C1103.15 892.442 1095.95 881.466 1088.09 876.71C1085.45 875.115 1081.32 871.948 1078.9 869.675C1074.54 865.574 1074.5 865.158 1074.76 820.163C1075.02 774.787 1075.02 774.787 1083.19 761.289C1090.65 748.947 1099.99 725.101 1102.5 711.973C1103.22 708.209 1108.03 703.099 1119.08 694.361C1138.42 679.068 1150.58 672.596 1176.26 663.933C1201.36 655.47 1225.96 652.236 1251.72 654.015C1276.8 655.749 1295.07 660.149 1330.54 672.993C1393.06 695.63 1404.91 698.155 1440.93 696.515C1455.61 695.846 1467.62 695.942 1467.62 696.724C1467.62 697.508 1459.94 715.533 1450.55 736.779C1441.16 758.028 1432.86 777.428 1432.09 779.892C1431.33 782.355 1429.16 787.822 1427.28 792.04C1418.93 810.701 1400.53 854.055 1400.53 855.05C1400.53 855.653 1398.47 860.703 1395.96 866.268C1388.82 882.04 1384.11 893.045 1381.37 900.353C1379.98 904.043 1377.34 910.514 1375.51 914.731C1373.68 918.949 1369.9 928.007 1367.11 934.86C1364.32 941.713 1360.35 950.457 1358.28 954.291C1356.22 958.125 1354.53 962.27 1354.53 963.503C1354.53 965.663 1348.47 980.564 1345.08 986.756C1344.17 988.411 1341.09 995.744 1338.23 1003.05C1332.71 1017.16 1319.08 1048.61 1316.08 1054.17C1315.08 1056 1314.28 1058.38 1314.28 1059.47C1314.28 1060.55 1311.06 1068.11 1307.14 1076.27C1302.73 1085.42 1300.06 1093.7 1300.17 1097.88C1300.37 1105.71 1309.22 1124.48 1319.62 1139.15C1326.35 1148.64 1341.94 1162.93 1345.61 1162.97C1346.5 1162.98 1349.58 1164.66 1352.45 1166.71C1359.92 1172.03 1383.12 1177.64 1408.42 1180.25C1440.53 1183.56 1580.34 1181.73 1600.46 1177.74C1635.26 1170.84 1655.5 1157.97 1672.92 1131.66C1679.9 1121.13 1688.42 1097.3 1686.87 1092.64C1686.24 1090.74 1683.73 1084.87 1681.29 1079.6C1678.85 1074.33 1671.59 1057.5 1665.16 1042.21C1658.72 1026.93 1651.81 1010.54 1649.79 1005.79C1647.77 1001.05 1642.68 988.969 1638.48 978.952C1634.28 968.936 1625.72 948.663 1619.45 933.901C1613.18 919.14 1604.86 899.299 1600.96 889.809C1597.06 880.32 1593.12 870.831 1592.22 868.722C1591.31 866.613 1588.41 859.712 1585.77 853.386C1579.05 837.284 1557.81 787.466 1554.71 780.538C1553.3 777.375 1550.05 769.179 1547.5 762.326C1544.95 755.472 1540.22 744.426 1536.99 737.78C1533.75 731.134 1530.1 722.507 1528.86 718.609C1527.63 714.712 1525.53 709.785 1524.21 707.661C1522.88 705.537 1521.23 701.197 1520.53 698.015C1519.46 693.159 1520.22 691.313 1525.24 686.539C1533.7 678.503 1538.81 667.543 1539.95 655.004C1540.76 646.04 1540.07 642.407 1535.87 633.533C1530.49 622.157 1516.18 608.962 1509.22 608.962C1507.14 608.962 1502.03 607.94 1497.87 606.69C1492.02 604.94 1489.45 604.94 1486.65 606.69C1484.65 607.94 1481.49 608.966 1479.63 608.97C1471.3 608.987 1455.65 622.287 1451.08 633.228C1447.07 642.838 1443.16 644.04 1423.7 641.674C1403.26 639.188 1382.74 632.009 1349.74 615.789C1282.42 582.706 1266.86 577.423 1229.81 575.065C1200.07 573.173 1160.26 581.564 1131.89 595.702C1107.08 608.063 1104.36 609.493 1103.42 610.653C1100.94 613.724 1089.85 620.464 1087.28 620.464C1085.69 620.464 1083.37 618.524 1082.11 616.151C1080.86 613.778 1077.71 609.842 1075.11 607.402C1071.3 603.83 1070.58 601.704 1071.43 596.488C1072 592.926 1074.11 587.589 1076.11 584.629C1078.12 581.669 1082.49 575.224 1085.84 570.309C1089.18 565.391 1091.92 560.779 1091.92 560.06C1091.92 559.341 1093.52 556.462 1095.47 553.663C1100.02 547.16 1107.27 523.086 1107.21 514.73C1107.13 504.234 1098.78 478.079 1091.15 464.428C1080.78 445.886 1040.75 399.988 1034.96 400C1033.68 400.002 1026.22 406.689 1018.39 414.861ZM1029.15 424.634C1014.03 440.597 988.413 474.251 988.413 478.143C988.413 479.126 986.954 482.857 985.169 486.432C980.975 494.84 979.467 521.639 982.645 531.272C983.941 535.198 988.01 543.717 991.688 550.203C1005.75 575.007 1017.17 597.414 1017.17 600.234C1017.17 601.848 1013.41 608.138 1008.82 614.213C1004.24 620.286 998.351 629.57 995.746 634.842C990.19 646.093 985.911 647.631 979.032 640.844C972.189 634.093 960.348 624.298 959.031 624.298C958.435 624.298 952.826 621.296 946.568 617.627C921.429 602.893 893.736 594.807 860.596 592.523C823.672 589.979 789.862 598.315 741.14 621.971C684.532 649.456 665.845 655.989 638.738 657.762C621.196 658.911 616.545 660.705 616.545 666.324C616.545 668.093 615.501 670.585 614.224 671.862C612.407 673.68 612.798 675.081 616.03 678.313C619.739 682.023 622.187 682.435 640.134 682.37C651.119 682.331 664.754 681.239 670.433 679.943C686.646 676.243 718.328 666.533 726.764 662.68C730.981 660.753 743.057 656.405 753.599 653.018C764.142 649.632 775.787 645.708 779.477 644.297C792.592 639.288 809.521 637.029 834.107 637.014C855.077 637.001 862.367 637.844 880.111 642.338C907.934 649.385 940.25 664.746 958.983 679.829C979.419 696.283 982.662 699.671 982.683 704.573C982.737 717.459 999.749 755.068 1008.72 762.123C1013.24 765.683 1016.39 766.16 1035.38 766.16C1053.76 766.16 1057.59 765.617 1061.62 762.45C1068.54 757.004 1081.34 730.664 1085.37 713.571C1088.73 699.297 1089.34 698.289 1100.46 688.608C1123.29 668.73 1144.17 656.905 1174.54 646.657C1194.46 639.934 1205.11 638.036 1231.22 636.562C1252.81 635.341 1255.35 635.603 1278.88 641.49C1292.55 644.91 1308.91 649.701 1315.23 652.136C1355.46 667.622 1375.68 674.345 1392.26 677.744C1426.17 684.699 1446.54 684.741 1450.88 677.868C1452.14 675.869 1451.59 672.6 1449.13 667.365C1445.55 659.764 1445.55 659.764 1429.13 657.601C1400.76 653.867 1379.88 646.481 1331.53 623.066C1315.19 615.152 1300.13 607.76 1298.06 606.639C1296 605.515 1289.53 603.357 1283.69 601.844C1277.84 600.33 1267.89 597.759 1261.56 596.133C1253.77 594.13 1240.47 593.131 1220.35 593.037C1193.99 592.916 1188.41 593.484 1170.87 598.067C1151.62 603.098 1128.5 613.235 1114.92 622.6C1100.88 632.289 1088.09 642.428 1088.09 643.877C1088.09 644.707 1085.93 645.386 1083.3 645.386C1080.66 645.386 1078.5 644.324 1078.5 643.028C1078.5 639.871 1065.78 619.161 1059.01 611.291C1056.03 607.829 1053.61 603.084 1053.65 600.747C1053.68 598.412 1058.44 587.874 1064.22 577.331C1088.46 533.087 1089.07 531.45 1088.88 511.193C1088.73 495.699 1087.94 491.309 1083.55 481.785C1075.11 463.449 1041.1 421.091 1034.82 421.091C1033.54 421.091 1030.99 422.686 1029.15 424.634ZM560.581 624.298C552.86 628.46 545.175 637.432 541.859 646.157C537.142 658.569 550.309 679.588 564.798 682.77C571.914 684.333 583.319 682.554 588.809 679.024C595.868 674.487 603.106 661.945 603.43 653.696C604.241 633.023 577.907 614.959 560.581 624.298ZM1481.81 624.051C1473.99 627.669 1468.56 633.818 1464.17 644.038C1460.85 651.787 1461.29 655.866 1466.59 666.33C1470.37 673.795 1473.3 676.636 1481.34 680.644C1486.86 683.393 1493.3 685.644 1495.65 685.644C1501.66 685.644 1515.66 674.418 1520.87 665.425C1528.25 652.673 1523.97 637.791 1510.05 627.814C1500.15 620.719 1491.51 619.567 1481.81 624.051ZM1023.3 639.38C1007.49 645.762 997.997 659.007 997.997 674.657C997.997 685.239 1008.84 701.506 1019.53 706.961C1037.12 715.933 1060.36 706.62 1068.83 687.206C1070.99 682.266 1072.75 675.545 1072.75 672.272C1072.75 658.654 1057.82 640.85 1044.52 638.603C1040.54 637.932 1036 637.083 1034.42 636.717C1032.84 636.349 1027.83 637.549 1023.3 639.38ZM1025.56 655.282C1019.49 658.224 1013.19 670.534 1014.84 676.224C1018.06 687.302 1025.95 693.312 1037.27 693.312C1042.64 693.312 1045.53 691.899 1050 687.082C1055.09 681.601 1055.68 679.816 1054.87 672.248C1053.3 657.544 1038.54 648.996 1025.56 655.282ZM580.051 708.169C580.01 708.959 580.043 791.942 580.123 892.576C580.225 1021.08 580.888 1076.29 582.349 1078.05C583.997 1080.04 600.402 1080.56 661.62 1080.56C749.497 1080.56 744.878 1081.55 736.517 1064.42C731.314 1053.76 708.554 1002.03 708.554 1000.87C708.554 1000.48 706.53 995.598 704.055 990.033C701.58 984.466 697.112 973.872 694.126 966.491C691.139 959.111 687.988 952.251 687.123 951.251C686.259 950.248 685.552 948.187 685.552 946.669C685.552 944.068 682.09 935.872 673.807 918.862C671.833 914.81 670.217 910.736 670.217 909.81C670.217 908.884 668.099 903.574 665.509 898.009C662.919 892.445 658.986 883.148 656.766 877.349C654.547 871.55 650.251 861.197 647.219 854.344C644.186 847.491 637.707 832.394 632.823 820.796C627.937 809.198 622.277 796.05 620.243 791.582C618.209 787.111 616.545 782.938 616.545 782.307C616.545 781.675 613.958 775.567 610.795 768.733C607.632 761.898 605.044 755.476 605.044 754.46C605.044 753.444 602.888 748.356 600.252 743.155C597.616 737.954 595.46 732.79 595.46 731.682C595.46 727.087 585.03 706.731 582.677 706.731C581.273 706.731 580.093 707.379 580.051 708.169ZM1479.2 709.513C1477.87 711.114 1474.39 719.338 1471.47 727.79C1468.54 736.24 1464.88 745.097 1463.33 747.469C1461.78 749.842 1459.9 753.939 1459.16 756.575C1457.61 762.117 1453.3 773.197 1448.19 784.83C1446.23 789.301 1444.62 793.445 1444.62 794.043C1444.62 794.641 1441.96 800.473 1438.71 807.004C1435.45 813.536 1431.48 822.761 1429.87 827.505C1428.27 832.25 1424.51 841.308 1421.52 847.634C1418.53 853.961 1414.39 863.45 1412.34 868.722C1410.28 873.994 1404.52 887.797 1399.54 899.395C1394.56 910.993 1385.51 932.56 1379.43 947.321C1373.36 962.082 1366.9 977.61 1365.09 981.828C1358.52 997.135 1354.28 1006.83 1352.53 1010.58C1351.54 1012.69 1348.63 1020.09 1346.06 1027.03C1343.49 1033.97 1339.68 1043.03 1337.58 1047.16C1329.69 1062.73 1325.57 1073.28 1326.17 1076.39C1326.73 1079.32 1333.56 1079.64 1404.28 1080.1C1446.89 1080.37 1482.42 1079.94 1483.22 1079.14C1485.42 1076.94 1485.65 707.947 1483.45 707.214C1482.44 706.879 1480.53 707.912 1479.2 709.513ZM1502.05 709.128C1501.09 740.481 1502.56 1077.92 1503.66 1079.03C1504.53 1079.89 1540.11 1080.37 1582.73 1080.1C1654.77 1079.63 1660.26 1079.36 1660.86 1076.24C1661.21 1074.4 1660.06 1070.08 1658.3 1066.66C1651.82 1054.07 1630.56 1002.82 1630.55 999.794C1630.55 998.078 1629.29 995.629 1627.75 994.35C1626.21 993.071 1624.43 990.163 1623.8 987.886C1622.34 982.644 1612.24 957.418 1607.56 947.321C1603.31 938.14 1582.64 888.899 1570.15 858.178C1565.22 846.053 1558.68 830.833 1555.62 824.356C1552.55 817.878 1550.05 812 1550.05 811.293C1550.05 810.586 1547.8 805.101 1545.05 799.106C1542.3 793.112 1538.38 783.893 1536.33 778.621C1534.29 773.349 1530.88 765.261 1528.75 760.648C1526.62 756.036 1523.18 747.841 1521.09 742.436C1519 737.032 1516.03 729.893 1514.5 726.571C1512.97 723.249 1511.71 719.551 1511.71 718.356C1511.71 715.324 1505.88 706.731 1503.82 706.731C1502.89 706.731 1502.09 707.811 1502.05 709.128ZM549.937 728.298C540.217 752.823 523.469 793.254 518.614 803.916C516.601 808.339 514.953 812.412 514.953 812.966C514.953 813.519 512.746 818.959 510.051 825.052C507.356 831.146 504.389 837.857 503.457 839.966C496.781 855.096 486.861 878.526 482.359 889.809C479.412 897.19 472.518 913.581 467.035 926.233C461.551 938.886 453.257 958.727 448.601 970.325C443.947 981.924 439.326 993.138 438.333 995.247C437.342 997.356 431.846 1009.86 426.124 1023.04C420.402 1036.22 412.933 1053.42 409.528 1061.25C403.645 1074.78 403.509 1075.62 406.797 1078.02C412.112 1081.91 559.525 1081.72 562.761 1077.82C564.484 1075.74 564.911 1030.93 564.534 891.864C564.074 723.283 563.782 708.648 560.88 708.648C558.664 708.648 555.41 714.494 549.937 728.298ZM1012.34 785.81C1011.76 788.183 1011.53 806.514 1011.83 826.547C1012.37 862.971 1012.37 862.971 1031.54 864.106C1060.76 865.835 1059.34 867.903 1059.34 823.784C1059.34 803.86 1058.81 786.197 1058.17 784.529C1057.21 782.01 1053.32 781.496 1035.21 781.496C1014.19 781.496 1013.37 781.652 1012.34 785.81ZM1000.36 883.583C992.624 886.062 980.741 898.848 980.757 904.672C980.778 913.803 984.913 923.254 991.361 928.915C1004.26 940.237 1007.81 941.169 1036.65 940.774C1066.97 940.358 1070.99 939.039 1081.68 925.996C1087.41 919 1088.73 915.826 1088.73 909.022C1088.73 898.522 1084.93 892.649 1073.97 886.228C1065.64 881.344 1064.43 881.188 1035.99 881.378C1019.84 881.486 1003.8 882.479 1000.36 883.583ZM1014.4 958.505C1011.22 960.832 1010.93 964.233 1011.18 996.524C1011.45 1031.99 1011.45 1031.99 1003.69 1058.67C999.429 1073.34 993.324 1094.41 990.126 1105.48C983.015 1130.09 977.053 1162.24 976.971 1176.4C976.879 1192.56 984.734 1213.76 995.285 1225.82C1004.04 1235.84 1004.04 1235.84 1034.31 1235.84C1062.03 1235.84 1064.99 1235.5 1069.63 1231.86C1082.76 1221.53 1093.59 1196.52 1093.64 1176.41C1093.69 1156.31 1085.54 1120.33 1068.68 1066.18C1060.33 1039.34 1060.33 1039.34 1059.78 1000.04C1059.31 966.018 1058.81 960.418 1056.04 958.344C1051.57 954.989 1019.04 955.114 1014.4 958.505ZM478.533 1097.81C438.998 1098.34 405.675 1099.4 404.483 1100.18C392.785 1107.79 415.168 1140.18 441.014 1153.05C463.631 1164.3 476.528 1165.52 574.375 1165.62C653.098 1165.7 663.084 1165.36 676.926 1162.12C704.99 1155.54 723.012 1144.03 735.506 1124.7C743.824 1111.83 744.855 1105.78 739.549 1100.98C736.404 1098.13 726.501 1097.76 643.228 1097.33C592.18 1097.07 518.067 1097.28 478.533 1097.81ZM1480.22 1097.34C1342.79 1097.79 1328.61 1098.12 1325.44 1100.99C1320.14 1105.79 1321.18 1111.4 1329.7 1124.1C1341.46 1141.61 1356.25 1152.32 1378.35 1159.33C1395.9 1164.89 1451.35 1167.48 1522.25 1166.04C1603.36 1164.39 1619.57 1160.98 1643.67 1140.44C1649.3 1135.65 1654.41 1130.35 1655.03 1128.66C1655.65 1126.98 1658.16 1122.39 1660.61 1118.46C1669.31 1104.48 1664.66 1098.63 1643.97 1097.52C1637.12 1097.15 1563.43 1097.07 1480.22 1097.34ZM467.49 1200.69C463.158 1202.44 460.961 1208.65 463.198 1212.83C465.212 1216.6 467.212 1216.67 572.201 1216.67C679.153 1216.67 679.153 1216.67 681.708 1211.89C683.936 1207.73 683.817 1206.63 680.777 1203.27C677.363 1199.49 675.122 1199.42 573.598 1199.56C516.569 1199.65 468.818 1200.15 467.49 1200.69ZM1389.99 1201.09C1385.67 1202 1384.12 1203.5 1383.74 1207.09C1383.47 1209.72 1383.95 1212.94 1384.8 1214.25C1386.97 1217.55 1597.08 1217.87 1601.06 1214.57C1605.01 1211.29 1604.28 1205.78 1599.46 1202.4C1595.73 1199.78 1582.88 1199.44 1495.47 1199.64C1440.62 1199.76 1393.15 1200.42 1389.99 1201.09ZM1005.66 1252.46C1004.08 1253 999.132 1255.09 994.663 1257.1C990.193 1259.11 986.086 1260.76 985.535 1260.76C984.983 1260.76 978.067 1263.87 970.166 1267.67C954.6 1275.16 936.658 1290.9 936.658 1297.06C936.658 1299.11 935.795 1301.32 934.741 1301.97C933.687 1302.63 932.824 1305.27 932.824 1307.86C932.824 1311.79 934.931 1313.52 945.763 1318.51C983.111 1335.72 1007.06 1348.24 1013.48 1353.93C1015.15 1355.4 1017.52 1356.61 1018.75 1356.61C1019.99 1356.61 1021 1357.34 1021 1358.23C1021 1359.11 1023.92 1361.41 1027.49 1363.34C1033.99 1366.84 1033.99 1366.84 1043.56 1359.81C1048.83 1355.94 1054.06 1352.78 1055.18 1352.78C1056.31 1352.78 1057.92 1351.69 1058.76 1350.37C1059.6 1349.04 1065.47 1345.28 1071.8 1342C1078.12 1338.72 1088.47 1333.37 1094.8 1330.1C1109.36 1322.58 1127.58 1314.44 1129.84 1314.44C1130.8 1314.44 1133.01 1312.85 1134.76 1310.92C1137.53 1307.86 1137.63 1306.48 1135.48 1300.28C1131.98 1290.16 1116.87 1275.36 1103.91 1269.35C1097.84 1266.54 1090.72 1263.1 1088.09 1261.72C1072.29 1253.42 1060.7 1251.17 1034.48 1251.32C1020.21 1251.41 1007.25 1251.92 1005.66 1252.46ZM642.423 1297.25C613.919 1299.13 582.92 1302.51 571.024 1305.05C566.546 1306 557.261 1307.58 550.389 1308.55C538.323 1310.26 530.757 1314.49 514.953 1328.39C513.371 1329.78 504.098 1337.3 494.347 1345.1C484.596 1352.9 476.616 1359.98 476.616 1360.82C476.616 1361.67 475.539 1362.37 474.22 1362.38C472.903 1362.39 463.94 1369.08 454.306 1377.24C444.67 1385.4 435.003 1393.41 432.826 1395.05C430.646 1396.68 426.015 1400.56 422.532 1403.67C419.049 1406.78 411.462 1412.96 405.673 1417.41C399.887 1421.85 392.844 1427.46 390.024 1429.87C387.205 1432.28 382.461 1436.15 379.482 1438.47C359.175 1454.29 352.021 1460.67 352.021 1462.95C352.021 1466.89 356.196 1467.58 362.079 1464.61C364.973 1463.15 376.618 1460.67 387.956 1459.1C399.292 1457.53 409.862 1455.77 411.443 1455.18C414.451 1454.06 431.162 1451.83 460.323 1448.66C469.811 1447.63 482.75 1445.94 489.075 1444.9C521.652 1439.54 587.442 1436.64 652.007 1437.71C742.641 1439.21 798.089 1446.39 856.206 1464.14C866.25 1467.2 875.164 1469.72 876.011 1469.72C877.381 1469.72 892.502 1475.97 911.739 1484.48C925.126 1490.41 951.807 1503.89 954.266 1505.98C957.958 1509.11 971.169 1517.64 972.317 1517.64C974.554 1517.64 1005.17 1542.06 1011.32 1548.75C1017.86 1555.86 1024.71 1558.29 1024.96 1553.59C1025.03 1552.27 1025.05 1512.37 1025.01 1464.92C1024.94 1378.66 1024.94 1378.66 1020.57 1375.3C1018.17 1373.46 1015.16 1371.09 1013.89 1370.03C1012.62 1368.98 1011.13 1368.11 1010.58 1368.11C1010.02 1368.11 1004.83 1365.08 999.036 1361.37C984.922 1352.34 966.714 1343.3 937.616 1330.87C921.8 1324.12 905.093 1318.63 873.402 1309.79C867.604 1308.17 849.489 1304.56 833.148 1301.77C805.45 1297.04 798.829 1296.66 735.389 1296.15C697.963 1295.86 656.128 1296.35 642.423 1297.25ZM1279.77 1296.55C1258.97 1298.04 1231.98 1301.46 1222.27 1303.83C1216.47 1305.24 1207.69 1306.96 1202.76 1307.64C1179.96 1310.79 1117.39 1333.43 1089.26 1348.72C1056.75 1366.38 1044.24 1375.08 1041.64 1381.85C1040.87 1383.86 1040.18 1423.64 1040.11 1470.26C1039.97 1568.03 1039.08 1564.14 1057.19 1545.51C1062.86 1539.67 1068.17 1534.9 1068.99 1534.9C1069.81 1534.9 1075.09 1531.19 1080.72 1526.65C1103.65 1508.19 1158.32 1480 1190.64 1469.97C1223.78 1459.68 1248.14 1452.96 1257.73 1451.46C1261.95 1450.8 1272.73 1449.01 1281.69 1447.49C1338.35 1437.88 1454.28 1434.19 1522.25 1439.84C1597.97 1446.13 1658.29 1453.99 1695.3 1462.39C1705.08 1464.61 1713.51 1465.99 1714.03 1465.47C1716.23 1463.27 1711.96 1457.7 1703.76 1452.06C1693.8 1445.2 1665.08 1422.37 1662.18 1419.01C1661.13 1417.78 1654.23 1412.15 1646.85 1406.5C1639.47 1400.84 1627.82 1391.35 1620.97 1385.4C1614.12 1379.45 1600.91 1368.6 1591.62 1361.28C1553 1330.86 1547.77 1326.68 1537.25 1317.8C1528.77 1310.63 1527.11 1309.96 1512.67 1307.77C1444.38 1297.45 1411.96 1295.2 1337.28 1295.65C1310.39 1295.81 1284.52 1296.21 1279.77 1296.55ZM588.751 1452.57C578.208 1453.36 552.948 1454.91 532.618 1456.03C512.288 1457.15 494.96 1458.5 494.113 1459.02C493.264 1459.55 485.746 1460.49 477.406 1461.11C469.063 1461.74 460.244 1462.67 457.806 1463.18C455.368 1463.68 444.585 1465.31 433.845 1466.79C411.227 1469.91 381.69 1474.7 369.273 1477.25C364.528 1478.23 352.884 1480.51 343.395 1482.31C333.907 1484.12 324.273 1486.74 321.984 1488.14C319.697 1489.54 310.263 1499.56 301.022 1510.4C291.779 1521.23 280.927 1533.51 276.906 1537.67C272.886 1541.83 269.597 1546.36 269.597 1547.73C269.597 1550.6 279.357 1551.17 282.152 1548.47C284.142 1546.54 312.231 1537.81 329.019 1533.9C334.817 1532.55 348.187 1529.27 358.73 1526.61C495.485 1492.14 684.842 1492.52 818.772 1527.54C867.368 1540.24 871.133 1541.39 887.778 1548.49C889.887 1549.39 895.494 1551.68 900.238 1553.58C910.307 1557.6 935.389 1570.78 949.096 1579.25C958.575 1585.11 958.738 1585.14 967.306 1582.24C972.062 1580.63 980.266 1578.83 985.537 1578.26C999.578 1576.71 1009.55 1573.42 1010.9 1569.9C1011.72 1567.77 1009.42 1564.45 1003.61 1559.34C936.955 1500.82 840.162 1463.9 733.473 1456.3C720.294 1455.37 698.299 1453.71 684.593 1452.63C656.845 1450.43 617.82 1450.41 588.751 1452.57ZM1382.32 1452.54C1371.78 1453.28 1353.24 1454.47 1341.11 1455.18C1282.32 1458.64 1205.61 1476.68 1158.05 1498.22C1123.79 1513.75 1074.64 1546.11 1057.62 1564.36C1051.16 1571.29 1054.13 1573.83 1072.18 1576.88C1080.4 1578.27 1091.87 1580.58 1097.67 1582.03C1108.09 1584.63 1108.32 1584.59 1116.84 1579.03C1124.75 1573.87 1154.26 1558.76 1170.56 1551.54C1200.41 1538.31 1265.94 1521.04 1313.32 1513.92C1328.08 1511.71 1345.33 1509.04 1351.65 1508.01C1368.6 1505.23 1449.85 1500.39 1479.4 1500.39C1534.65 1500.41 1611.95 1507.63 1665.68 1517.8C1701.82 1524.64 1773.18 1542.85 1782.37 1547.57C1789.25 1551.11 1795.4 1550.97 1795.4 1547.28C1795.4 1545.66 1792.17 1541.11 1788.21 1537.18C1784.26 1533.25 1774.84 1522.71 1767.29 1513.77C1745.29 1487.74 1742.54 1485.58 1728.31 1483.09C1721.46 1481.89 1709.38 1479.74 1701.48 1478.32C1662.98 1471.4 1652.43 1469.69 1625.76 1466.05C1590.86 1461.28 1562.89 1458.11 1546.21 1457.04C1539.36 1456.59 1514.34 1454.95 1490.6 1453.39C1445.99 1450.45 1415.4 1450.21 1382.32 1452.54ZM530.287 1516.25C529.76 1516.79 521.134 1517.68 511.119 1518.23C443.349 1521.98 356.777 1538.89 281.525 1563.09C248.408 1573.74 248.408 1573.74 235.103 1586.91C226.476 1595.45 222.186 1601.09 222.901 1602.95C223.853 1605.44 233.932 1605.83 297.033 1605.83C377.07 1605.83 367.461 1606.88 428.695 1591.45C500.82 1573.27 642.4 1568.49 707.014 1582.05C714.076 1583.53 722.598 1584.74 725.953 1584.74C734.306 1584.74 800.551 1599.2 806.895 1602.41C808.799 1603.37 815.554 1604.99 821.91 1606.02C831.814 1607.61 837.611 1607.07 862.537 1602.24C878.528 1599.14 897.65 1595.55 905.03 1594.26C919.857 1591.67 930.907 1587.78 930.907 1585.14C930.907 1584.2 928.105 1582.03 924.678 1580.33C913.063 1574.56 889.412 1564.12 884.75 1562.71C882.199 1561.94 877.523 1560.16 874.361 1558.77C848.132 1547.19 764.253 1529.33 694.177 1520.42C670.148 1517.37 532.622 1513.86 530.287 1516.25ZM1403.41 1517.77C1370.18 1519.94 1312.34 1528.07 1280.17 1535.09C1269.94 1537.32 1258.11 1539.86 1253.9 1540.73C1226.75 1546.35 1183.04 1560.9 1163.54 1570.82C1157.3 1573.99 1149.63 1577.16 1146.5 1577.87C1143.37 1578.59 1139.12 1580.43 1137.07 1581.96C1129.78 1587.42 1133.05 1588.45 1196.39 1600.7C1238.93 1608.93 1231.75 1609.34 1287.03 1595.43C1358.09 1577.54 1461.13 1569.17 1528 1575.87C1544.87 1577.56 1562.12 1579.25 1566.34 1579.64C1596.02 1582.33 1662.78 1596 1681.28 1603.18C1687.66 1605.65 1700.81 1606.11 1763.28 1606.06C1804.2 1606.02 1838.51 1605.47 1839.54 1604.84C1840.57 1604.2 1841.41 1602.55 1841.41 1601.17C1841.41 1597.05 1814.71 1571.41 1809.16 1570.21C1806.34 1569.59 1791.52 1565.24 1776.23 1560.54C1730.94 1546.61 1719.43 1543.72 1666.97 1533.11C1630.89 1525.81 1588.41 1520.35 1547.17 1517.7C1514.94 1515.63 1435.53 1515.67 1403.41 1517.77ZM1820.56 1550.91C1818.9 1552.9 1819.61 1554.8 1823.68 1559.17C1826.58 1562.29 1835.42 1571.8 1843.32 1580.29C1851.23 1588.78 1859.93 1598.35 1862.65 1601.56C1868.84 1608.87 1880.48 1612.69 1887.89 1609.86C1890.79 1608.75 1893.16 1607.08 1893.16 1606.15C1893.16 1605.22 1888.2 1600.97 1882.14 1596.69C1876.08 1592.41 1868.35 1586.47 1864.97 1583.47C1861.59 1580.48 1855.17 1575.01 1850.71 1571.32C1846.25 1567.63 1838.42 1560.94 1833.31 1556.46C1828.21 1551.98 1823.73 1548.32 1823.37 1548.32C1823.01 1548.32 1821.74 1549.48 1820.56 1550.91ZM235.038 1554.73C231.319 1557 225.713 1561.18 222.579 1564.03C219.447 1566.87 213.771 1572.05 209.968 1575.53C206.165 1579.01 196.502 1586.61 188.493 1592.41C180.487 1598.21 173.496 1604.02 172.957 1605.32C172.421 1606.62 173.714 1608.61 175.835 1609.75C181.202 1612.62 200.405 1608.57 202.024 1604.23C203.291 1600.83 208.574 1594.7 225.509 1576.96C237.495 1564.41 244.678 1555.15 244.678 1552.23C244.678 1549.47 242.874 1549.94 235.038 1554.73ZM1018.12 1586.7C1005.3 1589.18 965.016 1595.92 955.504 1597.17C946.171 1598.4 940.373 1602.43 944.377 1604.9C947.064 1606.56 1122.04 1607.02 1123.69 1605.37C1127.73 1601.33 1118.78 1598.24 1091.92 1594.4C1082.96 1593.12 1066.74 1590.42 1055.88 1588.41C1035.01 1584.53 1030.42 1584.32 1018.12 1586.7ZM533.163 1590.74C463.79 1596.61 454.572 1598.01 454.572 1602.75C454.572 1606.13 460.06 1606.27 594.502 1606.22C671.463 1606.2 735.51 1606.1 736.827 1606C738.146 1605.91 739.223 1604.62 739.223 1603.14C739.223 1599.52 726.574 1596.99 696.094 1594.5C682.389 1593.39 661.206 1591.6 649.019 1590.52C623.381 1588.27 561.034 1588.38 533.163 1590.74ZM1412.03 1590.59C1340.88 1596.74 1327.17 1598.86 1326.22 1603.91C1325.74 1606.45 1342.91 1606.79 1471.41 1606.79C1572.13 1606.79 1617.14 1606.16 1617.14 1604.77C1617.14 1601.57 1600.24 1596.67 1584.55 1595.32C1536.62 1591.21 1521.49 1590.4 1479.12 1589.66C1453.29 1589.22 1423.1 1589.63 1412.03 1590.59ZM849.06 1622.16C847.082 1623.61 846.53 1627.87 846.954 1638.46C847.525 1652.79 847.525 1652.79 1032.5 1652.79C1217.48 1652.79 1217.48 1652.79 1218.45 1640.49C1220.18 1618.7 1241.88 1621.03 1033.65 1620.59C912.189 1620.33 850.849 1620.86 849.06 1622.16ZM1573.05 1621.16C1234.73 1622.12 1234.73 1622.12 1234.73 1637.46C1234.73 1652.79 1234.73 1652.79 1578.42 1653.28C1922.12 1653.76 1922.12 1653.76 1927.77 1647.58C1930.87 1644.18 1933.42 1639.85 1933.42 1637.96C1933.42 1633.09 1921.87 1621.66 1916.16 1620.87C1913.53 1620.5 1759.13 1620.64 1573.05 1621.16ZM138.464 1627.06C131.933 1634.82 132.073 1642.08 138.884 1648.61C144.264 1653.76 144.264 1653.76 487.27 1653.28C830.273 1652.79 830.273 1652.79 831.381 1641.29C831.991 1634.97 831.797 1627.85 830.95 1625.48C829.411 1621.16 829.411 1621.16 486.419 1621.16C143.426 1621.16 143.426 1621.16 138.464 1627.06Z" fill="#FEF9E1"/>
</svg>
