<svg width="958" height="792" viewBox="0 0 958 792" fill="none" xmlns="http://www.w3.org/2000/svg">
<path fill-rule="evenodd" clip-rule="evenodd" d="M472.911 6.41429C469.532 9.94165 465.171 14.8748 463.218 17.3778C461.266 19.8808 459.458 22.1149 459.199 22.3425C457.961 23.4322 456.684 25.8764 452.499 35.1677C451.171 38.1159 449.215 46.9115 449.215 49.9342C449.215 55.3828 451.583 62.0296 456.411 70.136C459.051 74.5678 461.361 78.5668 461.542 79.0219C461.724 79.477 462.561 80.7372 463.403 81.8228C464.246 82.9084 464.935 84.4416 464.935 85.231C464.935 86.9843 458.56 95.1569 457.193 95.1569C456.653 95.1569 454.916 94.0945 453.333 92.7954C451.751 91.4963 449.339 89.8158 447.974 89.0612C446.609 88.3066 444.933 87.3352 444.251 86.9024C442.022 85.49 433.857 82.0917 430.117 81.021C428.107 80.4443 426.039 79.6557 425.521 79.2668C423.968 78.101 405.373 75.3034 399.157 75.3009C395.971 75.2993 389.642 76.02 385.092 76.9028C374.663 78.9251 369.954 80.7819 346.207 92.2327C331.608 99.2726 328.977 100.347 320.714 102.642C313.804 104.56 301.016 105.178 300.492 103.619C299.466 100.566 294.423 94.5214 290.89 92.1095C287.258 89.6296 286.296 89.3649 280.93 89.3649C273.394 89.3649 268.934 91.4864 264.238 97.3033C258.195 104.789 258.562 114.693 265.162 122.237C267.19 124.556 268.848 126.965 268.848 127.592C268.848 128.218 267.511 131.881 265.875 135.733C264.239 139.584 261.984 144.969 260.862 147.699C259.74 150.43 257.914 154.563 256.803 156.884C255.692 159.204 254.784 161.438 254.786 161.848C254.786 162.258 254.065 164.082 253.181 165.903C252.297 167.723 249.648 173.867 247.293 179.555C244.938 185.244 242.176 191.76 241.153 194.036C240.13 196.311 237.887 201.71 236.168 206.033C234.449 210.357 231.938 216.314 230.587 219.272C229.237 222.231 226.634 228.363 224.803 232.9C222.973 237.437 221.171 241.719 220.797 242.415C220.423 243.112 218.578 247.405 216.695 251.956C214.812 256.507 212.559 261.76 211.689 263.631C210.818 265.501 210.105 267.274 210.105 267.57C210.105 267.867 209.38 269.687 208.493 271.617C207.606 273.546 205.323 279.034 203.42 283.813C201.516 288.591 199.079 294.193 198.003 296.26C196.045 300.02 196.045 300.02 197.758 304.893C204.457 323.955 216.907 333.398 239.226 336.347C251.847 338.015 305.21 338.068 320.559 336.428C338.198 334.543 346.011 330.524 356.087 318.151C359.101 314.449 363.996 303.249 363.996 300.053C363.996 298.909 363.274 296.742 362.392 295.237C361.51 293.732 358.684 287.474 356.111 281.33C353.539 275.187 350.947 269.043 350.352 267.678C349.432 265.565 340.146 243.5 331.55 222.996C330.214 219.81 328.573 215.901 327.903 214.308C327.233 212.715 326.33 210.766 325.897 209.975C325.464 209.185 325.109 208.171 325.109 207.722C325.109 207.273 324.214 204.941 323.12 202.539C322.027 200.138 320.165 196.055 318.984 193.466C317.802 190.877 316.836 188.261 316.836 187.651C316.836 187.042 316.335 185.808 315.723 184.911C315.111 184.014 313.56 180.486 312.278 177.073C310.995 173.66 309.486 170.123 308.926 169.213C308.366 168.302 307.645 166.627 307.324 165.489C306.444 162.365 295.51 136.676 293.132 132.146C291.466 128.973 291.249 127.937 292.047 126.974C293.272 125.498 295.47 125.421 296.855 126.806C297.594 127.545 301.477 127.833 310.465 127.814C323.041 127.788 323.041 127.788 335.038 123.938C341.636 121.821 350.57 118.738 354.891 117.088C379.88 107.544 400.76 106.948 423.066 115.144C430.584 117.907 437.387 121.855 445.156 127.966C450.498 132.167 450.644 132.386 452.065 138.323C453.64 144.902 457.246 153.207 460.809 158.456C463.056 161.766 463.056 161.766 462.961 181.489C462.866 201.213 462.866 201.213 460.384 203.24C459.019 204.355 456.688 206.278 455.203 207.512C451.238 210.81 449.71 215.495 450.425 222.17C450.975 227.302 451.259 227.877 455.347 232.132C457.734 234.616 460.109 236.649 460.624 236.649C462.474 236.649 463.185 243.104 462.994 258.162C462.8 273.47 462.8 273.47 458.982 285.467C448.815 317.413 446.369 329.983 448.32 340.245C449.738 347.704 451.543 352.251 455.18 357.527C457.068 360.266 458.165 362.676 457.872 363.442C457.599 364.152 455.819 365.127 453.916 365.608C449.268 366.784 439.866 372.556 436.121 376.534C434.449 378.31 432.15 381.821 431.013 384.336C429.561 387.547 428.352 389.068 426.955 389.439C425.77 389.754 420.086 388.749 412.89 386.952C392.479 381.855 374.2 380.027 342.071 379.871C322.206 379.773 287.056 382.503 277.122 384.915C275.074 385.413 271.295 386.094 268.724 386.43C264.697 386.957 263.149 387.744 257.555 392.103C233.858 410.565 228.911 414.465 225.7 417.208C223.721 418.898 219.496 422.344 216.311 424.866C209.681 430.114 205.396 433.603 204.023 434.87C203.5 435.353 199.722 438.293 195.626 441.405C191.531 444.515 187.994 447.333 187.766 447.667C187.539 447.999 185.491 449.685 183.216 451.411C180.941 453.138 178.707 454.971 178.252 455.487C177.797 456.001 175.19 458.05 172.46 460.038C169.73 462.026 166.879 464.332 166.124 465.162C165.37 465.992 162.9 467.891 160.635 469.383C158.37 470.875 154.661 473.761 152.392 475.798C150.124 477.835 147.452 480.06 146.454 480.743C145.457 481.425 143.268 483.238 141.589 484.771C139.911 486.305 136.862 488.713 134.815 490.122C131.744 492.236 126.571 496.361 114.251 506.523C113.635 507.031 110.843 509.238 108.046 511.426C105.25 513.615 100.917 517.008 98.4188 518.967C95.921 520.925 92.1052 524.243 89.9383 526.34C86.2706 529.891 86 530.437 86 534.296C86 538.973 87.5927 541.605 92.1143 544.399C94.8909 546.115 94.8909 546.115 480.096 545.906C865.302 545.696 865.302 545.696 868.651 542.425C871.654 539.492 872 538.741 872 535.144C872 529.981 870.371 526.923 866.001 523.888C864.067 522.545 861.182 520.263 859.589 518.816C857.997 517.37 853.901 514.095 850.488 511.538C847.076 508.982 844.097 506.66 843.87 506.379C843.642 506.097 841.408 504.272 838.905 502.324C836.402 500.374 832.865 497.548 831.045 496.042C829.225 494.536 822.71 489.342 816.566 484.499C810.423 479.657 804.466 474.849 803.328 473.814C802.191 472.779 798.84 470.11 795.882 467.882C792.924 465.654 787.292 461.213 783.364 458.014C776.032 452.04 768.993 446.43 761.529 440.612C759.193 438.791 747.116 429.11 734.69 419.098C722.265 409.086 710.006 399.27 707.451 397.284C704.895 395.297 702.617 393.436 702.389 393.147C702.162 392.857 700.234 391.407 698.106 389.923C695.28 387.953 692.382 386.874 687.35 385.917C653.216 379.429 596.887 377.967 565.553 382.754C557.018 384.058 552.852 384.984 541.88 388.015C532.561 390.59 532.647 390.62 529.225 383.726C525.655 376.536 520.692 372.289 510.01 367.283C503.918 364.427 502.994 363.718 502.994 361.898C502.994 360.745 504.245 358.25 505.774 356.352C509.057 352.281 511.97 344.138 512.646 337.147C513.572 327.566 509.823 310.748 500.664 283.399C497.616 274.297 497.616 274.297 497.422 256.969C497.229 239.641 497.229 239.641 502.563 234.384C508.825 228.214 511.055 222.947 510.101 216.584C509.495 212.548 506.385 207.811 502.994 205.758C501.856 205.069 500.071 203.703 499.027 202.721C497.145 200.951 497.13 200.772 497.241 181.351C497.353 161.766 497.353 161.766 500.877 155.94C504.101 150.613 508.132 140.32 509.214 134.654C509.524 133.03 511.601 130.824 516.371 127.052C524.716 120.452 529.966 117.658 541.053 113.919C551.886 110.266 562.505 108.87 573.621 109.638C584.447 110.387 592.335 112.286 607.645 117.83C634.63 127.6 639.742 128.69 655.29 127.982C661.628 127.693 666.813 127.735 666.813 128.072C666.813 128.411 663.497 136.19 659.445 145.361C655.392 154.532 651.808 162.906 651.477 163.969C651.147 165.032 650.211 167.392 649.397 169.213C645.797 177.267 637.855 195.979 637.855 196.409C637.855 196.669 636.965 198.849 635.879 201.251C632.8 208.058 630.767 212.809 629.581 215.963C628.982 217.556 627.845 220.348 627.054 222.168C626.262 223.989 624.631 227.898 623.427 230.857C622.223 233.815 620.509 237.589 619.618 239.243C618.727 240.898 617.998 242.687 617.998 243.219C617.998 244.152 615.383 250.583 613.917 253.256C613.526 253.97 612.196 257.135 610.963 260.289C608.58 266.381 602.698 279.952 601.4 282.353C600.972 283.143 600.623 284.172 600.623 284.639C600.623 285.106 599.237 288.368 597.541 291.89C595.64 295.841 594.488 299.413 594.535 301.219C594.622 304.601 598.44 312.701 602.932 319.033C605.836 323.127 612.565 329.295 614.147 329.313C614.532 329.318 615.86 330.043 617.099 330.926C620.324 333.222 630.336 335.645 641.26 336.771C655.117 338.2 715.465 337.412 724.15 335.69C739.17 332.71 747.905 327.155 755.425 315.801C758.437 311.254 762.114 300.969 761.448 298.956C761.177 298.136 760.092 295.604 759.038 293.328C757.984 291.053 754.85 283.792 752.074 277.193C749.298 270.594 746.313 263.52 745.44 261.472C744.568 259.424 742.371 254.211 740.56 249.888C738.748 245.564 735.052 236.814 732.347 230.443C729.641 224.072 726.049 215.508 724.364 211.412C722.68 207.316 720.982 203.22 720.591 202.31C720.2 201.4 718.948 198.421 717.807 195.691C714.906 188.741 705.739 167.238 704.403 164.248C703.793 162.883 702.393 159.345 701.292 156.387C700.19 153.429 698.148 148.661 696.752 145.793C695.357 142.924 693.779 139.201 693.245 137.518C692.713 135.836 691.808 133.71 691.237 132.793C690.664 131.876 689.949 130.003 689.647 128.629C689.187 126.533 689.515 125.736 691.683 123.676C695.335 120.208 697.54 115.477 698.031 110.065C698.382 106.196 698.085 104.628 696.272 100.798C693.949 95.8875 687.772 90.1923 684.768 90.1923C683.871 90.1923 681.666 89.7513 679.866 89.2118C677.344 88.4563 676.234 88.4563 675.024 89.2118C674.161 89.7513 672.798 90.1939 671.995 90.1956C668.401 90.203 661.645 95.9438 659.672 100.666C657.939 104.814 656.255 105.333 647.856 104.312C639.03 103.238 630.176 100.14 615.93 93.1388C586.872 78.8597 580.157 76.5793 564.164 75.5615C551.329 74.7449 534.144 78.3666 521.898 84.4689C511.193 89.8042 510.017 90.4215 509.613 90.9221C508.54 92.2477 503.752 95.1569 502.643 95.1569C501.958 95.1569 500.955 94.3195 500.415 93.2952C499.875 92.2708 498.513 90.5721 497.39 89.5188C495.746 87.9772 495.437 87.0596 495.801 84.8082C496.051 83.2708 496.962 80.9672 497.825 79.6896C498.689 78.4121 500.577 75.6302 502.022 73.5087C503.466 71.3863 504.648 69.3955 504.648 69.0852C504.648 68.7749 505.339 67.5321 506.182 66.3241C508.142 63.5174 511.273 53.1264 511.248 49.5196C511.214 44.9894 507.61 33.7007 504.314 27.8085C499.84 19.8055 482.562 -0.00496369 480.062 9.3295e-07C479.507 0.00082837 476.29 2.88693 472.911 6.41429ZM477.552 10.6326C471.029 17.5226 459.971 32.0483 459.971 33.728C459.971 34.1525 459.341 35.7626 458.571 37.3058C456.76 40.935 456.109 52.5017 457.481 56.6596C458.04 58.3542 459.797 62.0313 461.384 64.8305C467.456 75.5367 472.381 85.2078 472.381 86.425C472.381 87.1217 470.761 89.8365 468.78 92.4586C466.8 95.08 464.26 99.0872 463.136 101.363C460.738 106.219 458.891 106.883 455.921 103.953C452.968 101.039 447.857 96.8118 447.289 96.8118C447.031 96.8118 444.61 95.516 441.909 93.9323C431.058 87.5726 419.105 84.0825 404.801 83.097C388.863 81.999 374.27 85.5967 353.24 95.8073C328.806 107.67 320.74 110.49 309.04 111.256C301.468 111.751 299.461 112.526 299.461 114.951C299.461 115.715 299.01 116.79 298.459 117.341C297.675 118.126 297.844 118.731 299.238 120.126C300.839 121.727 301.896 121.905 309.643 121.877C314.384 121.86 320.269 121.388 322.721 120.829C329.719 119.232 343.393 115.041 347.035 113.378C348.855 112.546 354.067 110.67 358.618 109.208C363.168 107.746 368.195 106.053 369.787 105.444C375.448 103.282 382.756 102.307 393.367 102.3C402.419 102.294 405.565 102.658 413.224 104.598C425.233 107.64 439.182 114.27 447.268 120.78C456.089 127.882 457.488 129.344 457.498 131.46C457.521 137.022 464.864 153.255 468.735 156.3C470.688 157.836 472.047 158.042 480.241 158.042C488.176 158.042 489.83 157.808 491.568 156.441C494.556 154.09 500.081 142.721 501.82 135.344C503.272 129.183 503.536 128.748 508.334 124.569C518.189 115.989 527.201 110.886 540.309 106.462C548.908 103.56 553.505 102.741 564.776 102.105C574.094 101.578 575.19 101.691 585.346 104.232C591.246 105.708 598.307 107.776 601.037 108.827C618.402 115.511 627.128 118.413 634.283 119.88C648.919 122.882 657.713 122.9 659.585 119.934C660.128 119.071 659.894 117.66 658.83 115.4C657.286 112.119 657.286 112.119 650.199 111.186C637.951 109.574 628.941 106.386 608.069 96.2797C601.016 92.8641 594.516 89.6735 593.625 89.1894C592.733 88.7046 589.941 87.7729 587.42 87.12C584.898 86.4663 580.601 85.3568 577.871 84.6551C574.508 83.7904 568.768 83.3593 560.082 83.3188C548.702 83.2666 546.297 83.5116 538.724 85.49C530.414 87.6612 520.438 92.0366 514.577 96.0787C508.514 100.261 502.994 104.637 502.994 105.262C502.994 105.621 502.063 105.914 500.925 105.914C499.788 105.914 498.857 105.455 498.857 104.896C498.857 103.533 493.365 94.5943 490.441 91.1976C489.154 89.7033 488.113 87.6554 488.128 86.6467C488.144 85.6389 490.196 81.0905 492.69 76.5396C503.153 57.4432 503.416 56.7365 503.335 47.993C503.272 41.3057 502.929 39.4108 501.036 35.3001C497.393 27.3857 482.713 9.10346 480.003 9.10346C479.451 9.10346 478.348 9.79189 477.552 10.6326ZM275.305 96.8118C271.973 98.6082 268.656 102.481 267.224 106.246C265.188 111.604 270.871 120.676 277.125 122.049C280.197 122.724 285.119 121.956 287.489 120.433C290.536 118.474 293.66 113.061 293.8 109.501C294.15 100.577 282.784 92.7805 275.305 96.8118ZM672.936 96.705C669.561 98.2664 667.219 100.921 665.324 105.332C663.888 108.676 664.079 110.437 666.367 114.953C668 118.175 669.264 119.402 672.735 121.132C675.117 122.318 677.894 123.29 678.908 123.29C681.503 123.29 687.548 118.444 689.794 114.563C692.981 109.059 691.133 102.635 685.126 98.3293C680.853 95.267 677.121 94.7697 672.936 96.705ZM475.027 103.321C468.207 106.076 464.107 111.793 464.107 118.548C464.107 123.115 468.788 130.136 473.403 132.491C480.992 136.363 491.024 132.344 494.682 123.964C495.613 121.832 496.375 118.931 496.375 117.518C496.375 111.64 489.93 103.956 484.188 102.986C482.472 102.697 480.51 102.33 479.827 102.172C479.145 102.013 476.985 102.531 475.027 103.321ZM476.006 110.185C473.385 111.455 470.664 116.768 471.378 119.224C472.768 124.006 476.174 126.6 481.061 126.6C483.378 126.6 484.624 125.99 486.555 123.91C488.751 121.545 489.004 120.774 488.655 117.508C487.979 111.161 481.605 107.472 476.006 110.185ZM283.709 133.012C283.691 133.353 283.705 169.17 283.74 212.606C283.784 268.072 284.07 291.901 284.701 292.66C285.412 293.518 292.493 293.742 318.917 293.742C356.847 293.742 354.853 294.171 351.244 286.776C348.999 282.174 339.175 259.85 339.175 259.349C339.175 259.178 338.301 257.072 337.233 254.67C336.165 252.267 334.236 247.695 332.947 244.509C331.658 241.324 330.298 238.363 329.925 237.931C329.552 237.498 329.246 236.609 329.246 235.954C329.246 234.831 327.752 231.293 324.177 223.952C323.325 222.202 322.627 220.444 322.627 220.044C322.627 219.645 321.713 217.353 320.595 214.951C319.478 212.55 317.78 208.536 316.822 206.033C315.864 203.53 314.01 199.062 312.701 196.104C311.392 193.146 308.595 186.63 306.487 181.624C304.378 176.618 301.935 170.944 301.057 169.015C300.179 167.085 299.461 165.284 299.461 165.012C299.461 164.739 298.344 162.102 296.979 159.153C295.614 156.203 294.497 153.431 294.497 152.992C294.497 152.554 293.566 150.358 292.428 148.113C291.291 145.868 290.36 143.639 290.36 143.161C290.36 141.177 285.858 132.392 284.842 132.392C284.237 132.392 283.727 132.671 283.709 133.012ZM671.811 133.592C671.237 134.283 669.735 137.833 668.471 141.481C667.209 145.128 665.628 148.951 664.958 149.975C664.289 150.999 663.48 152.767 663.161 153.905C662.489 156.297 660.632 161.08 658.426 166.101C657.578 168.03 656.884 169.819 656.884 170.077C656.884 170.335 655.735 172.852 654.331 175.671C652.927 178.491 651.212 182.472 650.518 184.52C649.826 186.568 648.203 190.478 646.912 193.208C645.62 195.939 643.837 200.035 642.949 202.31C642.06 204.585 639.575 210.543 637.425 215.549C635.276 220.555 631.371 229.864 628.748 236.235C626.125 242.606 623.339 249.308 622.557 251.129C619.72 257.736 617.892 261.919 617.133 263.54C616.707 264.451 615.452 267.645 614.343 270.64C613.234 273.634 611.587 277.544 610.682 279.328C607.277 286.047 605.499 290.601 605.757 291.942C606 293.207 608.945 293.347 639.47 293.545C657.865 293.663 673.2 293.477 673.546 293.131C674.496 292.18 674.592 132.916 673.643 132.6C673.208 132.455 672.383 132.901 671.811 133.592ZM681.674 133.426C681.258 146.959 681.892 292.605 682.369 293.081C682.742 293.455 698.099 293.663 716.494 293.545C747.59 293.343 749.961 293.226 750.22 291.88C750.373 291.084 749.875 289.222 749.114 287.743C746.319 282.312 737.14 260.189 737.139 258.884C737.139 258.143 736.595 257.086 735.93 256.534C735.265 255.982 734.496 254.726 734.222 253.743C733.591 251.481 729.233 240.593 727.215 236.235C725.38 232.272 716.459 211.019 711.067 197.759C708.938 192.526 706.115 185.957 704.793 183.161C703.471 180.365 702.389 177.828 702.389 177.522C702.389 177.217 701.419 174.85 700.233 172.262C699.046 169.675 697.353 165.696 696.471 163.42C695.588 161.145 694.115 157.654 693.197 155.663C692.279 153.672 690.791 150.135 689.889 147.803C688.987 145.47 687.708 142.389 687.046 140.955C686.384 139.521 685.842 137.925 685.842 137.409C685.842 136.1 683.325 132.392 682.438 132.392C682.035 132.392 681.691 132.857 681.674 133.426ZM270.711 141.7C266.515 152.286 259.287 169.736 257.191 174.339C256.322 176.247 255.611 178.006 255.611 178.245C255.611 178.483 254.658 180.831 253.495 183.461C252.332 186.091 251.051 188.988 250.649 189.898C247.767 196.429 243.485 206.542 241.542 211.412C240.27 214.597 237.294 221.672 234.928 227.133C232.561 232.594 228.981 241.158 226.971 246.164C224.962 251.17 222.968 256.011 222.539 256.921C222.111 257.831 219.739 263.23 217.269 268.919C214.8 274.607 211.576 282.028 210.106 285.409C207.567 291.248 207.508 291.611 208.927 292.649C211.221 294.327 274.849 294.242 276.246 292.56C276.99 291.662 277.174 272.322 277.011 212.299C276.813 139.536 276.687 133.219 275.434 133.219C274.478 133.219 273.073 135.742 270.711 141.7ZM470.3 166.523C470.049 167.548 469.949 175.46 470.078 184.106C470.313 199.828 470.313 199.828 478.586 200.318C491.199 201.064 490.583 201.957 490.583 182.914C490.583 174.314 490.357 166.69 490.081 165.971C489.664 164.883 487.986 164.662 480.168 164.662C471.096 164.662 470.741 164.729 470.3 166.523ZM465.126 208.724C461.788 209.794 456.659 215.313 456.666 217.827C456.675 221.768 458.46 225.847 461.243 228.291C466.809 233.178 468.342 233.58 480.79 233.409C493.878 233.23 495.614 232.66 500.226 227.031C502.7 224.011 503.269 222.641 503.269 219.704C503.269 215.173 501.629 212.637 496.901 209.866C493.303 207.758 492.781 207.691 480.507 207.773C473.535 207.819 466.613 208.248 465.126 208.724ZM471.188 241.062C469.815 242.067 469.69 243.535 469.796 257.472C469.912 272.779 469.912 272.779 466.566 284.295C464.725 290.628 462.09 299.72 460.71 304.498C457.641 315.123 455.068 328.997 455.032 335.111C454.992 342.086 458.383 351.235 462.937 356.442C466.718 360.764 466.718 360.764 479.78 360.764C491.748 360.764 493.025 360.62 495.025 359.046C500.694 354.587 505.368 343.793 505.389 335.114C505.41 326.44 501.894 310.909 494.618 287.536C491.013 275.952 491.013 275.952 490.777 258.989C490.572 244.305 490.356 241.888 489.163 240.993C487.233 239.545 473.189 239.598 471.188 241.062ZM239.891 301.189C222.826 301.416 208.443 301.876 207.928 302.211C202.879 305.495 212.54 319.478 223.696 325.03C233.459 329.889 239.025 330.414 281.259 330.458C315.238 330.492 319.549 330.345 325.523 328.946C337.637 326.108 345.416 321.139 350.808 312.795C354.398 307.241 354.843 304.63 352.553 302.557C351.196 301.328 346.921 301.166 310.978 300.981C288.944 300.868 256.955 300.961 239.891 301.189ZM672.25 300.987C612.929 301.18 606.809 301.324 605.44 302.563C603.154 304.632 603.602 307.057 607.281 312.536C612.355 320.094 618.741 324.718 628.281 327.742C635.853 330.143 659.79 331.259 690.393 330.638C725.401 329.928 732.397 328.453 742.799 319.591C745.229 317.521 747.436 315.232 747.703 314.506C747.969 313.781 749.052 311.797 750.11 310.1C753.867 304.067 751.86 301.541 742.931 301.063C739.973 300.905 708.166 300.87 672.25 300.987ZM235.124 345.594C233.254 346.348 232.306 349.03 233.272 350.835C234.141 352.459 235.004 352.49 280.321 352.49C326.485 352.49 326.485 352.49 327.587 350.429C328.549 348.632 328.498 348.157 327.185 346.706C325.712 345.078 324.745 345.045 280.924 345.108C256.308 345.144 235.697 345.363 235.124 345.594ZM633.304 345.765C631.439 346.161 630.769 346.805 630.608 348.357C630.49 349.492 630.696 350.882 631.064 351.446C631.999 352.873 722.692 353.009 724.407 351.585C726.113 350.17 725.8 347.79 723.717 346.331C722.106 345.202 716.559 345.055 678.832 345.141C655.157 345.194 634.669 345.476 633.304 345.765ZM467.417 367.938C466.734 368.171 464.597 369.072 462.669 369.941C460.739 370.81 458.966 371.521 458.729 371.521C458.49 371.521 455.505 372.863 452.095 374.505C445.376 377.737 437.632 384.529 437.632 387.189C437.632 388.075 437.259 389.029 436.804 389.311C436.349 389.592 435.977 390.735 435.977 391.849C435.977 393.547 436.886 394.296 441.562 396.45C457.682 403.876 468.017 409.281 470.792 411.737C471.51 412.372 472.534 412.893 473.067 412.893C473.6 412.893 474.036 413.206 474.036 413.59C474.036 413.973 475.298 414.966 476.839 415.797C479.642 417.306 479.642 417.306 483.776 414.272C486.049 412.603 488.306 411.238 488.791 411.238C489.277 411.238 489.971 410.77 490.335 410.199C490.699 409.627 493.231 408.002 495.961 406.587C498.691 405.173 503.159 402.862 505.889 401.451C512.174 398.205 520.038 394.689 521.016 394.689C521.429 394.689 522.385 394.006 523.14 393.172C524.335 391.851 524.375 391.254 523.45 388.58C521.937 384.212 515.417 377.824 509.822 375.23C507.204 374.016 504.131 372.534 502.994 371.936C496.174 368.353 491.174 367.383 479.856 367.449C473.697 367.485 468.099 367.705 467.417 367.938ZM310.631 387.272C298.328 388.081 284.947 389.542 279.813 390.636C277.88 391.048 273.872 391.729 270.906 392.149C265.698 392.887 262.432 394.715 255.611 400.712C254.928 401.312 250.925 404.558 246.716 407.925C242.508 411.292 239.063 414.346 239.063 414.711C239.063 415.076 238.598 415.378 238.029 415.383C237.461 415.387 233.592 418.273 229.433 421.796C225.274 425.318 221.102 428.777 220.162 429.482C219.221 430.187 217.222 431.863 215.719 433.205C214.216 434.548 210.941 437.216 208.442 439.134C205.944 441.052 202.905 443.472 201.688 444.512C200.471 445.552 198.423 447.224 197.137 448.225C188.372 455.054 185.284 457.807 185.284 458.792C185.284 460.493 187.086 460.791 189.625 459.51C190.875 458.878 195.901 457.808 200.795 457.131C205.688 456.453 210.25 455.691 210.933 455.437C212.231 454.954 219.444 453.992 232.031 452.625C236.126 452.179 241.711 451.448 244.441 450.999C258.502 448.687 286.899 447.433 314.767 447.895C353.888 448.544 377.821 451.642 402.906 459.304C407.242 460.628 411.089 461.711 411.454 461.711C412.046 461.711 418.572 464.409 426.876 468.084C432.654 470.642 444.17 476.463 445.232 477.362C446.825 478.713 452.528 482.397 453.023 482.397C453.989 482.397 467.203 492.937 469.858 495.826C472.679 498.895 475.638 499.942 475.746 497.912C475.776 497.343 475.786 480.122 475.768 459.643C475.735 422.408 475.735 422.408 473.851 420.96C472.815 420.164 471.517 419.141 470.968 418.685C470.419 418.23 469.774 417.857 469.537 417.857C469.298 417.857 467.057 416.548 464.556 414.948C458.464 411.051 450.605 407.148 438.045 401.784C431.219 398.868 424.007 396.5 410.328 392.683C407.826 391.984 400.007 390.427 392.954 389.222C380.998 387.179 378.141 387.015 350.758 386.798C334.604 386.67 316.546 386.883 310.631 387.272ZM585.731 386.971C576.75 387.614 565.103 389.087 560.909 390.111C558.407 390.721 554.618 391.462 552.49 391.756C542.649 393.114 515.64 402.889 503.498 409.486C489.469 417.108 484.067 420.867 482.947 423.786C482.614 424.652 482.317 441.824 482.286 461.946C482.223 504.147 481.842 502.468 489.655 494.425C492.102 491.905 494.395 489.844 494.75 489.844C495.106 489.844 497.384 488.243 499.815 486.286C509.712 478.319 533.308 466.151 547.258 461.822C561.564 457.381 572.076 454.481 576.216 453.832C578.036 453.546 582.69 452.775 586.558 452.119C611.013 447.969 661.052 446.377 690.393 448.816C723.075 451.533 749.109 454.925 765.084 458.549C769.305 459.506 772.944 460.105 773.17 459.878C774.118 458.93 772.275 456.523 768.738 454.089C764.44 451.132 752.039 441.275 750.791 439.824C750.335 439.295 747.357 436.865 744.172 434.425C740.986 431.984 735.96 427.887 733.002 425.318C730.044 422.751 724.344 418.067 720.335 414.909C703.662 401.779 701.407 399.976 696.868 396.141C693.204 393.048 692.488 392.756 686.256 391.814C656.779 387.356 642.785 386.388 610.552 386.579C598.948 386.648 587.778 386.823 585.731 386.971ZM287.464 454.312C282.914 454.65 272.011 455.322 263.236 455.805C254.46 456.288 246.981 456.869 246.615 457.095C246.249 457.322 243.004 457.728 239.404 457.999C235.803 458.269 231.997 458.67 230.944 458.889C229.892 459.108 225.238 459.81 220.602 460.45C210.839 461.797 198.09 463.862 192.731 464.965C190.683 465.387 185.657 466.369 181.561 467.148C177.466 467.927 173.307 469.06 172.319 469.665C171.332 470.27 167.26 474.592 163.271 479.27C159.282 483.948 154.598 489.245 152.862 491.042C151.127 492.838 149.707 494.793 149.707 495.386C149.707 496.624 153.92 496.87 155.127 495.703C155.985 494.871 168.11 491.103 175.356 489.416C177.859 488.832 183.629 487.417 188.18 486.27C247.208 471.391 328.94 471.555 386.748 486.669C407.724 492.152 409.349 492.646 416.534 495.713C417.444 496.102 419.864 497.089 421.912 497.908C426.258 499.644 437.084 505.333 443 508.99C447.092 511.519 447.162 511.531 450.86 510.278C452.913 509.583 456.454 508.809 458.729 508.559C464.79 507.892 469.092 506.474 469.677 504.951C470.029 504.034 469.038 502.6 466.528 500.397C437.76 475.137 395.981 459.202 349.931 455.923C344.242 455.517 334.748 454.803 328.833 454.336C316.856 453.389 300.011 453.379 287.464 454.312ZM629.995 454.298C625.444 454.618 617.439 455.132 612.206 455.439C586.829 456.931 553.718 464.716 533.193 474.015C518.403 480.716 497.19 494.686 489.841 502.564C487.054 505.552 488.334 506.65 496.127 507.964C499.676 508.563 504.628 509.564 507.131 510.188C511.626 511.309 511.727 511.293 515.404 508.894C518.82 506.665 531.557 500.147 538.593 497.028C551.473 491.317 579.76 483.864 600.209 480.792C606.58 479.836 614.027 478.686 616.757 478.239C624.07 477.04 659.143 474.95 671.894 474.953C695.742 474.96 729.109 478.077 752.3 482.466C767.901 485.418 798.701 493.277 802.667 495.315C805.638 496.843 808.293 496.784 808.293 495.19C808.293 494.49 806.897 492.528 805.19 490.831C803.484 489.134 799.418 484.587 796.157 480.728C786.663 469.493 785.476 468.558 779.335 467.483C776.377 466.965 771.164 466.039 767.752 465.426C751.135 462.44 746.579 461.702 735.071 460.129C720.005 458.071 707.931 456.703 700.735 456.239C697.777 456.048 686.976 455.339 676.731 454.664C657.477 453.396 644.272 453.292 629.995 454.298ZM262.229 481.795C262.002 482.027 258.279 482.413 253.956 482.652C224.704 484.27 187.337 491.57 154.856 502.013C140.562 506.608 140.562 506.608 134.819 512.294C131.095 515.982 129.243 518.417 129.552 519.22C129.963 520.291 134.313 520.459 161.549 520.459C196.096 520.459 191.949 520.912 218.379 514.253C249.51 506.408 310.621 504.344 338.51 510.195C341.558 510.835 345.237 511.358 346.685 511.358C350.29 511.358 378.883 517.599 381.622 518.983C382.444 519.399 385.359 520.1 388.103 520.541C392.378 521.231 394.88 520.998 405.639 518.912C412.541 517.574 420.795 516.024 423.98 515.468C430.38 514.35 435.149 512.668 435.149 511.53C435.149 511.124 433.94 510.189 432.461 509.455C427.448 506.964 417.239 502.459 415.226 501.85C414.125 501.517 412.107 500.751 410.742 500.148C399.421 495.149 363.216 487.444 332.969 483.597C322.598 482.278 263.237 480.766 262.229 481.795ZM639.096 482.452C624.753 483.39 599.787 486.9 585.901 489.928C581.484 490.891 576.381 491.987 574.561 492.364C562.846 494.788 543.979 501.069 535.56 505.348C532.867 506.717 529.559 508.087 528.206 508.395C526.853 508.702 525.022 509.496 524.136 510.159C520.989 512.514 522.4 512.96 549.74 518.247C568.103 521.797 565.002 521.978 588.862 515.971C619.534 508.249 664.008 504.64 692.875 507.53C700.156 508.259 707.602 508.99 709.422 509.155C722.235 510.318 751.048 516.219 759.034 519.316C761.788 520.383 767.464 520.583 794.426 520.559C812.088 520.543 826.9 520.306 827.344 520.033C827.787 519.759 828.149 519.047 828.149 518.451C828.149 516.67 816.627 505.606 814.229 505.085C813.012 504.821 806.617 502.944 800.019 500.915C780.467 494.901 775.5 493.654 752.859 489.075C737.283 485.925 718.948 483.566 701.148 482.421C687.235 481.528 652.961 481.544 639.096 482.452ZM819.15 496.755C818.435 497.617 818.743 498.435 820.496 500.322C821.748 501.669 825.564 505.771 828.977 509.436C832.39 513.102 836.143 517.234 837.317 518.619C839.989 521.771 845.015 523.422 848.213 522.199C849.465 521.72 850.488 521.001 850.488 520.6C850.488 520.2 848.348 518.362 845.731 516.516C843.114 514.67 839.78 512.103 838.32 510.811C836.861 509.519 834.091 507.158 832.166 505.566C830.239 503.973 826.86 501.087 824.656 499.153C822.451 497.219 820.519 495.636 820.363 495.636C820.207 495.636 819.661 496.139 819.15 496.755ZM134.791 498.403C133.186 499.385 130.766 501.191 129.413 502.418C128.061 503.645 125.611 505.879 123.97 507.383C122.328 508.886 118.157 512.164 114.701 514.667C111.245 517.17 108.227 519.678 107.995 520.24C107.763 520.802 108.322 521.663 109.237 522.152C111.553 523.392 119.842 521.645 120.541 519.769C121.088 518.302 123.368 515.655 130.678 508.002C135.851 502.585 138.952 498.585 138.952 497.324C138.952 496.135 138.173 496.337 134.791 498.403ZM472.795 512.205C467.259 513.276 449.872 516.182 445.766 516.723C441.738 517.252 439.235 518.992 440.963 520.059C442.123 520.776 517.649 520.973 518.36 520.261C520.105 518.517 516.243 517.184 504.648 515.529C500.78 514.976 493.781 513.812 489.093 512.941C480.084 511.267 478.104 511.178 472.795 512.205ZM263.471 513.948C233.527 516.48 229.548 517.088 229.548 519.133C229.548 520.591 231.917 520.65 289.946 520.631C323.165 520.619 350.81 520.576 351.378 520.535C351.948 520.493 352.413 519.938 352.413 519.301C352.413 517.738 346.953 516.645 333.797 515.573C327.881 515.09 318.738 514.317 313.478 513.854C302.411 512.88 275.5 512.931 263.471 513.948ZM642.819 513.882C612.105 516.536 606.19 517.454 605.779 519.632C605.573 520.727 612.982 520.873 668.447 520.873C711.919 520.873 731.347 520.604 731.347 520.003C731.347 518.622 724.052 516.508 717.282 515.927C696.592 514.149 690.062 513.799 671.777 513.483C660.628 513.29 647.597 513.469 642.819 513.882ZM399.822 527.511C398.968 528.136 398.73 529.975 398.912 534.544C399.159 540.732 399.159 540.732 479 540.732C558.841 540.732 558.841 540.732 559.263 535.423C560.01 526.014 569.377 527.023 479.496 526.832C427.07 526.721 400.594 526.947 399.822 527.511ZM712.318 527.079C566.287 527.493 566.287 527.493 566.287 534.112C566.287 540.732 566.287 540.732 714.638 540.941C862.988 541.15 862.988 541.15 865.426 538.481C866.766 537.013 867.863 535.145 867.863 534.329C867.863 532.228 862.881 527.292 860.417 526.951C859.279 526.793 792.635 526.851 712.318 527.079ZM93.1063 529.625C90.2874 532.975 90.3478 536.108 93.2875 538.925C95.6099 541.15 95.6099 541.15 243.662 540.941C391.713 540.732 391.713 540.732 392.191 535.767C392.454 533.037 392.37 529.964 392.005 528.941C391.34 527.079 391.34 527.079 243.294 527.079C95.2483 527.079 95.2483 527.079 93.1063 529.625Z" fill="#6D2323"/>
<path d="M60.6122 589.872V593.976C55.955 594.112 52.3936 594.659 49.928 595.617C47.5994 596.438 46.0242 598.079 45.2023 600.541C44.3805 602.866 43.9695 606.559 43.9695 611.62V715.022C43.9695 719.399 44.312 722.75 44.9968 725.075C45.8187 727.263 47.257 728.699 49.3116 729.383C51.3663 730.067 54.3113 730.409 58.1466 730.409H69.8581C75.2002 730.409 79.8574 729.452 83.8297 727.537C87.939 725.622 91.5004 722.818 94.5139 719.125C97.5274 715.432 99.993 710.918 101.911 705.584C103.828 700.113 105.198 693.958 106.02 687.12H110.746C110.335 691.633 110.129 697.515 110.129 704.764C110.129 707.773 110.198 712.081 110.335 717.689C110.609 723.297 111.02 729.11 111.568 735.128C104.582 734.854 96.7055 734.717 87.939 734.717C79.1725 734.581 71.3649 734.512 64.516 734.512C61.2286 734.512 57.0508 734.512 51.9827 734.512C46.9145 734.512 41.367 734.581 35.34 734.717C29.45 734.717 23.423 734.786 17.2591 734.923C11.2321 734.923 5.47907 734.991 0 735.128V731.024C4.52023 730.751 7.87616 730.204 10.0678 729.383C12.3964 728.562 13.9031 726.921 14.588 724.459C15.4099 721.997 15.8208 718.304 15.8208 713.38V611.62C15.8208 606.559 15.4099 602.866 14.588 600.541C13.9031 598.079 12.3964 596.438 10.0678 595.617C7.87616 594.659 4.52023 594.112 0 593.976V589.872C3.42442 590.009 7.80767 590.146 13.1498 590.283C18.4919 590.419 24.2449 590.488 30.4088 590.488C36.0249 590.488 41.5724 590.419 47.0515 590.283C52.5306 590.146 57.0508 590.009 60.6122 589.872Z" fill="#6D2323"/>
<path d="M188.933 589.257L238.861 717.894C240.916 722.818 243.107 726.237 245.436 728.152C247.902 729.93 250.162 730.888 252.216 731.024V735.128C248.655 734.854 244.34 734.717 239.272 734.717C234.341 734.581 229.273 734.512 224.068 734.512C218.041 734.512 212.425 734.581 207.22 734.717C202.014 734.717 197.768 734.854 194.481 735.128V731.024C201.466 730.751 205.918 729.588 207.836 727.537C209.754 725.348 209.343 720.766 206.603 713.791L170.441 616.338L174.14 611.825L141.265 696.967C138.663 703.806 137.087 709.414 136.54 713.791C135.992 718.168 136.334 721.587 137.567 724.049C138.8 726.511 140.854 728.289 143.731 729.383C146.607 730.341 150.169 730.888 154.415 731.024V735.128C150.032 734.854 145.785 734.717 141.676 734.717C137.567 734.581 133.458 734.512 129.348 734.512C126.335 734.512 123.458 734.581 120.719 734.717C118.116 734.717 115.788 734.854 113.733 735.128V731.024C116.746 730.341 119.691 728.562 122.568 725.69C125.581 722.818 128.458 717.826 131.197 710.713L178.249 589.257C179.893 589.394 181.673 589.462 183.591 589.462C185.509 589.462 187.289 589.394 188.933 589.257ZM206.809 676.041V680.144H145.58L147.635 676.041H206.809Z" fill="#6D2323"/>
<path d="M315.447 589.872C341.746 589.872 361.197 596.027 373.799 608.337C386.538 620.51 392.907 638.017 392.907 660.859C392.907 675.767 389.756 688.829 383.456 700.045C377.292 711.124 368.32 719.74 356.54 725.895C344.76 732.05 330.446 735.128 313.597 735.128C311.543 735.128 308.735 735.059 305.173 734.923C301.749 734.786 298.119 734.717 294.284 734.717C290.585 734.581 287.161 734.512 284.01 734.512C278.394 734.512 272.915 734.581 267.573 734.717C262.231 734.717 257.848 734.854 254.423 735.128V731.024C258.944 730.751 262.3 730.204 264.491 729.383C266.82 728.562 268.327 726.921 269.012 724.459C269.833 721.997 270.244 718.304 270.244 713.38V611.62C270.244 606.559 269.833 602.866 269.012 600.541C268.327 598.079 266.82 596.438 264.491 595.617C262.3 594.659 258.944 594.112 254.423 593.976V589.872C257.848 590.009 262.231 590.214 267.573 590.488C272.915 590.625 278.257 590.625 283.6 590.488C288.531 590.351 294.078 590.214 300.242 590.077C306.406 589.941 311.474 589.872 315.447 589.872ZM313.597 593.565C307.297 593.565 303.187 594.728 301.27 597.053C299.352 599.378 298.393 604.097 298.393 611.209V713.791C298.393 720.903 299.352 725.622 301.27 727.947C303.324 730.272 307.502 731.435 313.803 731.435C326.542 731.435 336.473 728.768 343.595 723.433C350.855 717.962 355.923 710.029 358.8 699.635C361.813 689.24 363.32 676.588 363.32 661.679C363.32 646.361 361.676 633.709 358.389 623.724C355.238 613.603 350.033 606.08 342.773 601.156C335.514 596.096 325.788 593.565 313.597 593.565Z" fill="#6D2323"/>
<path d="M408.322 589.872C411.746 590.009 416.129 590.146 421.471 590.283C426.813 590.419 432.156 590.488 437.498 590.488C444.21 590.488 450.579 590.419 456.606 590.283C462.633 590.146 466.879 590.077 469.345 590.077C487.7 590.077 501.329 593.839 510.232 601.361C519.273 608.884 523.793 618.595 523.793 630.495C523.793 635.418 522.903 640.616 521.122 646.087C519.341 651.421 516.259 656.414 511.876 661.064C507.493 665.577 501.466 669.27 493.795 672.143C486.261 675.015 476.604 676.451 464.824 676.451H444.278V672.348H462.77C471.399 672.348 477.974 670.501 482.495 666.808C487.152 663.115 490.234 658.26 491.74 652.242C493.384 646.224 494.206 639.727 494.206 632.751C494.206 619.758 492.083 610.047 487.837 603.618C483.59 597.19 476.262 593.976 465.852 593.976C460.236 593.976 456.537 595.138 454.757 597.463C453.113 599.789 452.291 604.507 452.291 611.62V712.56C452.291 717.757 452.839 721.655 453.935 724.254C455.031 726.853 457.154 728.562 460.304 729.383C463.455 730.204 467.975 730.682 473.865 730.819V735.128C469.893 734.854 464.756 734.717 458.455 734.717C452.154 734.581 445.648 734.512 438.936 734.512C433.183 734.512 427.635 734.581 422.293 734.717C416.951 734.717 412.294 734.854 408.322 735.128V731.024C412.842 730.751 416.198 730.204 418.389 729.383C420.718 728.562 422.225 726.921 422.91 724.459C423.732 721.997 424.142 718.304 424.142 713.38V611.62C424.142 606.559 423.732 602.866 422.91 600.541C422.225 598.079 420.718 596.438 418.389 595.617C416.198 594.659 412.842 594.112 408.322 593.976V589.872Z" fill="#6D2323"/>
<path d="M535.533 589.872C538.958 590.009 543.341 590.146 548.683 590.283C554.025 590.419 559.367 590.488 564.709 590.488C571.421 590.488 577.791 590.419 583.818 590.283C589.845 590.146 594.091 590.077 596.557 590.077C608.884 590.077 619.021 591.582 626.965 594.591C635.047 597.463 641.074 601.567 645.046 606.901C649.019 612.235 651.005 618.527 651.005 625.776C651.005 630.289 650.114 634.94 648.334 639.727C646.553 644.377 643.471 648.686 639.088 652.652C634.704 656.619 628.678 659.901 621.007 662.5C613.473 664.962 603.816 666.193 592.036 666.193H572.312V662.09H589.982C598.611 662.09 605.186 660.585 609.706 657.576C614.363 654.43 617.445 650.327 618.952 645.266C620.596 640.069 621.418 634.324 621.418 628.033C621.418 617.227 619.295 608.884 615.048 603.003C610.802 596.985 603.474 593.976 593.064 593.976C587.448 593.976 583.749 595.138 581.969 597.463C580.325 599.789 579.503 604.507 579.503 611.62V713.38C579.503 718.304 579.914 721.997 580.736 724.459C581.557 726.921 583.064 728.562 585.256 729.383C587.585 730.204 590.94 730.751 595.324 731.024V735.128C591.899 734.854 587.516 734.717 582.174 734.717C576.832 734.581 571.421 734.512 565.942 734.512C559.778 734.512 554.025 734.581 548.683 734.717C543.341 734.717 538.958 734.854 535.533 735.128V731.024C540.054 730.751 543.409 730.204 545.601 729.383C547.93 728.562 549.437 726.921 550.121 724.459C550.943 721.997 551.354 718.304 551.354 713.38V611.62C551.354 606.559 550.943 602.866 550.121 600.541C549.437 598.079 547.93 596.438 545.601 595.617C543.409 594.659 540.054 594.112 535.533 593.976V589.872ZM572.312 662.705C578.75 662.979 584.092 663.321 588.338 663.731C592.721 664.005 596.419 664.278 599.433 664.552C602.583 664.825 605.391 665.167 607.857 665.577C619.226 666.672 627.582 669.339 632.924 673.579C638.403 677.682 642.033 683.974 643.813 692.454L648.539 713.586C649.772 719.193 651.073 723.228 652.443 725.69C653.95 728.015 656.073 729.11 658.812 728.973C660.73 728.973 662.374 728.494 663.744 727.537C665.113 726.443 666.483 725.006 667.853 723.228L670.729 725.69C667.305 729.93 663.675 733.076 659.84 735.128C656.004 737.043 651.142 738 645.252 738C638.677 738 633.129 736.495 628.609 733.486C624.089 730.341 621.007 724.459 619.363 715.842L615.459 695.326C614.363 689.582 613.062 684.521 611.555 680.144C610.186 675.767 608.268 672.348 605.802 669.886C603.337 667.424 599.707 666.193 594.913 666.193H572.723L572.312 662.705Z" fill="#6D2323"/>
<path d="M746.907 587C760.879 587 773.138 589.941 783.685 595.822C794.233 601.703 802.383 610.183 808.136 621.262C814.026 632.204 816.971 645.54 816.971 661.269C816.971 676.588 813.957 689.992 807.93 701.481C802.04 712.97 793.753 721.929 783.069 728.357C772.522 734.786 760.399 738 746.702 738C732.73 738 720.471 735.059 709.923 729.178C699.376 723.297 691.158 714.817 685.268 703.738C679.515 692.659 676.638 679.323 676.638 663.731C676.638 648.412 679.652 635.008 685.679 623.519C691.706 612.03 699.993 603.071 710.54 596.643C721.087 590.214 733.209 587 746.907 587ZM746.085 590.693C738.004 590.693 730.949 593.77 724.922 599.925C719.032 606.08 714.444 614.56 711.156 625.365C707.869 636.171 706.225 648.686 706.225 662.91C706.225 677.409 708.074 690.06 711.773 700.865C715.471 711.534 720.471 719.809 726.772 725.69C733.072 731.435 739.99 734.307 747.523 734.307C755.605 734.307 762.591 731.23 768.481 725.075C774.508 718.92 779.165 710.44 782.453 699.635C785.74 688.693 787.384 676.177 787.384 662.09C787.384 647.455 785.535 634.803 781.836 624.135C778.138 613.466 773.138 605.26 766.837 599.515C760.673 593.634 753.756 590.693 746.085 590.693Z" fill="#6D2323"/>
<path d="M906.223 587C915.263 587 922.66 588.368 928.413 591.103C934.303 593.702 939.508 596.779 944.028 600.336C946.768 602.387 948.823 602.661 950.192 601.156C951.699 599.515 952.726 595.754 953.274 589.872H958C957.726 595.07 957.521 601.43 957.384 608.952C957.247 616.475 957.178 626.391 957.178 638.701H952.452C951.631 632.546 950.74 627.417 949.781 623.314C948.823 619.074 947.453 615.449 945.672 612.44C944.028 609.431 941.7 606.559 938.686 603.823C934.988 599.72 930.536 596.711 925.331 594.796C920.263 592.745 914.921 591.719 909.305 591.719C902.182 591.719 895.95 593.634 890.607 597.463C885.402 601.156 881.019 606.285 877.458 612.851C874.033 619.279 871.431 626.802 869.65 635.418C868.006 644.035 867.184 653.199 867.184 662.91C867.184 672.895 868.075 682.196 869.855 690.812C871.773 699.293 874.513 706.747 878.074 713.175C881.772 719.467 886.293 724.391 891.635 727.947C897.114 731.503 903.415 733.281 910.538 733.281C915.606 733.281 920.811 732.324 926.153 730.409C931.495 728.494 935.878 725.553 939.303 721.587C943.823 717.484 946.905 712.628 948.549 707.02C950.192 701.276 951.494 693.685 952.452 684.247H957.178C957.178 697.104 957.247 707.499 957.384 715.432C957.521 723.228 957.726 729.793 958 735.128H953.274C952.726 729.246 951.768 725.553 950.398 724.049C949.165 722.544 947.042 722.75 944.028 724.664C938.96 728.221 933.55 731.366 927.797 734.102C922.181 736.701 914.921 738 906.017 738C892.046 738 879.786 735.059 869.239 729.178C858.692 723.297 850.473 714.817 844.583 703.738C838.83 692.659 835.954 679.323 835.954 663.731C835.954 648.412 838.967 635.008 844.994 623.519C851.021 612.03 859.308 603.071 869.855 596.643C880.403 590.214 892.525 587 906.223 587Z" fill="#6D2323"/>
<path d="M23.6173 791V772.8H24.9433V789.804H35.4213V791H23.6173Z" fill="#6D2323"/>
<path d="M45.3263 791V772.8H46.6523V791H45.3263Z" fill="#6D2323"/>
<path d="M67.2683 791.13C65.8989 791.13 64.6336 790.905 63.4723 790.454C62.3109 789.986 61.2969 789.336 60.4303 788.504C59.5809 787.672 58.9223 786.701 58.4543 785.592C57.9863 784.465 57.7523 783.235 57.7523 781.9C57.7523 780.565 57.9863 779.343 58.4543 778.234C58.9223 777.107 59.5896 776.128 60.4563 775.296C61.3229 774.464 62.3283 773.823 63.4723 773.372C64.6336 772.904 65.9076 772.67 67.2943 772.67C68.6116 772.67 69.8336 772.878 70.9603 773.294C72.0869 773.71 73.0489 774.334 73.8463 775.166L73.0143 776.05C72.2169 775.27 71.3416 774.715 70.3883 774.386C69.4523 774.057 68.4296 773.892 67.3203 773.892C66.1416 773.892 65.0496 774.091 64.0443 774.49C63.0389 774.889 62.1636 775.452 61.4183 776.18C60.6729 776.908 60.0923 777.757 59.6763 778.728C59.2776 779.699 59.0783 780.756 59.0783 781.9C59.0783 783.044 59.2776 784.101 59.6763 785.072C60.0923 786.043 60.6729 786.892 61.4183 787.62C62.1636 788.348 63.0389 788.911 64.0443 789.31C65.0496 789.709 66.1416 789.908 67.3203 789.908C68.3949 789.908 69.4089 789.743 70.3623 789.414C71.3329 789.085 72.2169 788.539 73.0143 787.776L73.7683 788.79C72.9536 789.57 71.9743 790.159 70.8303 790.558C69.7036 790.939 68.5163 791.13 67.2683 791.13ZM73.7683 788.79L72.4943 788.634V781.978H73.7683V788.79Z" fill="#6D2323"/>
<path d="M83.0616 791L91.4336 772.8H92.7596L101.132 791H99.7016L91.7976 773.632H92.3696L84.4916 791H83.0616ZM86.1296 785.878L86.5716 784.76H97.4656L97.9076 785.878H86.1296Z" fill="#6D2323"/>
<path d="M121.071 791L129.443 772.8H130.769L139.141 791H137.711L129.807 773.632H130.379L122.501 791H121.071ZM124.139 785.878L124.581 784.76H135.475L135.917 785.878H124.139Z" fill="#6D2323"/>
<path d="M156.388 791.13C155.036 791.13 153.779 790.905 152.618 790.454C151.474 789.986 150.477 789.336 149.628 788.504C148.778 787.672 148.12 786.701 147.652 785.592C147.184 784.465 146.95 783.235 146.95 781.9C146.95 780.565 147.184 779.343 147.652 778.234C148.12 777.107 148.778 776.128 149.628 775.296C150.494 774.464 151.5 773.823 152.644 773.372C153.788 772.904 155.036 772.67 156.388 772.67C157.67 772.67 158.866 772.878 159.976 773.294C161.102 773.71 162.064 774.343 162.862 775.192L162.03 776.05C161.25 775.287 160.383 774.741 159.43 774.412C158.494 774.065 157.497 773.892 156.44 773.892C155.278 773.892 154.195 774.091 153.19 774.49C152.202 774.889 151.335 775.452 150.59 776.18C149.862 776.908 149.29 777.757 148.874 778.728C148.475 779.699 148.276 780.756 148.276 781.9C148.276 783.044 148.475 784.101 148.874 785.072C149.29 786.043 149.862 786.892 150.59 787.62C151.335 788.348 152.202 788.911 153.19 789.31C154.195 789.709 155.278 789.908 156.44 789.908C157.497 789.908 158.494 789.743 159.43 789.414C160.383 789.067 161.25 788.504 162.03 787.724L162.862 788.582C162.064 789.431 161.102 790.073 159.976 790.506C158.866 790.922 157.67 791.13 156.388 791.13Z" fill="#6D2323"/>
<path d="M170.025 791L178.397 772.8H179.723L188.095 791H186.665L178.761 773.632H179.333L171.455 791H170.025ZM173.093 785.878L173.535 784.76H184.429L184.871 785.878H173.093Z" fill="#6D2323"/>
<path d="M197.899 791V772.8H205.101C207.025 772.8 208.715 773.19 210.171 773.97C211.627 774.75 212.753 775.825 213.551 777.194C214.365 778.563 214.773 780.132 214.773 781.9C214.773 783.668 214.365 785.237 213.551 786.606C212.753 787.975 211.627 789.05 210.171 789.83C208.715 790.61 207.025 791 205.101 791H197.899ZM199.225 789.804H204.997C206.713 789.804 208.203 789.466 209.469 788.79C210.734 788.114 211.713 787.187 212.407 786.008C213.1 784.812 213.447 783.443 213.447 781.9C213.447 780.357 213.1 778.997 212.407 777.818C211.713 776.622 210.734 775.686 209.469 775.01C208.203 774.334 206.713 773.996 204.997 773.996H199.225V789.804Z" fill="#6D2323"/>
<path d="M225.879 791V772.8H238.047V773.996H227.205V789.804H238.437V791H225.879ZM227.049 782.342V781.172H236.903V782.342H227.049ZM227.959 771.318L231.235 768.25H232.691L235.967 771.318H234.667L231.495 768.666H232.431L229.259 771.318H227.959Z" fill="#6D2323"/>
<path d="M249.772 791V772.8H250.89L259.34 787.386H258.742L267.166 772.8H268.258L268.284 791H266.984L266.958 774.802H267.322L259.34 788.582H258.69L250.682 774.802H251.072V791H249.772Z" fill="#6D2323"/>
<path d="M281.129 791V772.8H282.455V791H281.129Z" fill="#6D2323"/>
<path d="M302.993 791.13C301.641 791.13 300.384 790.905 299.223 790.454C298.079 789.986 297.082 789.336 296.233 788.504C295.384 787.672 294.725 786.701 294.257 785.592C293.789 784.465 293.555 783.235 293.555 781.9C293.555 780.565 293.789 779.343 294.257 778.234C294.725 777.107 295.384 776.128 296.233 775.296C297.1 774.464 298.105 773.823 299.249 773.372C300.393 772.904 301.641 772.67 302.993 772.67C304.276 772.67 305.472 772.878 306.581 773.294C307.708 773.71 308.67 774.343 309.467 775.192L308.635 776.05C307.855 775.287 306.988 774.741 306.035 774.412C305.099 774.065 304.102 773.892 303.045 773.892C301.884 773.892 300.8 774.091 299.795 774.49C298.807 774.889 297.94 775.452 297.195 776.18C296.467 776.908 295.895 777.757 295.479 778.728C295.08 779.699 294.881 780.756 294.881 781.9C294.881 783.044 295.08 784.101 295.479 785.072C295.895 786.043 296.467 786.892 297.195 787.62C297.94 788.348 298.807 788.911 299.795 789.31C300.8 789.709 301.884 789.908 303.045 789.908C304.102 789.908 305.099 789.743 306.035 789.414C306.988 789.067 307.855 788.504 308.635 787.724L309.467 788.582C308.67 789.431 307.708 790.073 306.581 790.506C305.472 790.922 304.276 791.13 302.993 791.13Z" fill="#6D2323"/>
<path d="M316.63 791L325.002 772.8H326.328L334.7 791H333.27L325.366 773.632H325.938L318.06 791H316.63ZM319.698 785.878L320.14 784.76H331.034L331.476 785.878H319.698Z" fill="#6D2323"/>
<path d="M357.682 791V772.8H364.884C366.808 772.8 368.498 773.19 369.954 773.97C371.41 774.75 372.536 775.825 373.334 777.194C374.148 778.563 374.556 780.132 374.556 781.9C374.556 783.668 374.148 785.237 373.334 786.606C372.536 787.975 371.41 789.05 369.954 789.83C368.498 790.61 366.808 791 364.884 791H357.682ZM359.008 789.804H364.78C366.496 789.804 367.986 789.466 369.252 788.79C370.517 788.114 371.496 787.187 372.19 786.008C372.883 784.812 373.23 783.443 373.23 781.9C373.23 780.357 372.883 778.997 372.19 777.818C371.496 776.622 370.517 775.686 369.252 775.01C367.986 774.334 366.496 773.996 364.78 773.996H359.008V789.804Z" fill="#6D2323"/>
<path d="M385.662 791V772.8H397.83V773.996H386.988V789.804H398.22V791H385.662ZM386.832 782.342V781.172H396.686V782.342H386.832Z" fill="#6D2323"/>
<path d="M422.733 791V772.8H429.935C431.859 772.8 433.549 773.19 435.005 773.97C436.461 774.75 437.587 775.825 438.385 777.194C439.199 778.563 439.607 780.132 439.607 781.9C439.607 783.668 439.199 785.237 438.385 786.606C437.587 787.975 436.461 789.05 435.005 789.83C433.549 790.61 431.859 791 429.935 791H422.733ZM424.059 789.804H429.831C431.547 789.804 433.037 789.466 434.303 788.79C435.568 788.114 436.547 787.187 437.241 786.008C437.934 784.812 438.281 783.443 438.281 781.9C438.281 780.357 437.934 778.997 437.241 777.818C436.547 776.622 435.568 775.686 434.303 775.01C433.037 774.334 431.547 773.996 429.831 773.996H424.059V789.804Z" fill="#6D2323"/>
<path d="M450.713 791V772.8H452.039V791H450.713Z" fill="#6D2323"/>
<path d="M464.881 791V772.8H471.407C473.695 772.8 475.489 773.337 476.789 774.412C478.089 775.487 478.739 776.995 478.739 778.936C478.739 780.201 478.444 781.293 477.855 782.212C477.266 783.113 476.425 783.815 475.333 784.318C474.241 784.803 472.932 785.046 471.407 785.046H465.609L466.207 784.422V791H464.881ZM477.517 791L472.785 784.396H474.293L479.025 791H477.517ZM466.207 784.5L465.609 783.876H471.407C473.366 783.876 474.848 783.443 475.853 782.576C476.876 781.709 477.387 780.496 477.387 778.936C477.387 777.359 476.876 776.145 475.853 775.296C474.848 774.429 473.366 773.996 471.407 773.996H465.609L466.207 773.346V784.5Z" fill="#6D2323"/>
<path d="M490.094 791V772.8H502.262V773.996H491.42V789.804H502.652V791H490.094ZM491.264 782.342V781.172H501.118V782.342H491.264Z" fill="#6D2323"/>
<path d="M513.986 791V772.8H515.312V791H513.986Z" fill="#6D2323"/>
<path d="M531.638 791V773.996H525.086V772.8H539.516V773.996H532.964V791H531.638Z" fill="#6D2323"/>
<path d="M556.773 791.13C555.421 791.13 554.164 790.905 553.003 790.454C551.859 789.986 550.854 789.336 549.987 788.504C549.138 787.655 548.479 786.675 548.011 785.566C547.543 784.439 547.309 783.217 547.309 781.9C547.309 780.583 547.543 779.369 548.011 778.26C548.479 777.133 549.138 776.154 549.987 775.322C550.854 774.473 551.859 773.823 553.003 773.372C554.164 772.904 555.421 772.67 556.773 772.67C558.125 772.67 559.373 772.904 560.517 773.372C561.678 773.823 562.684 774.464 563.533 775.296C564.382 776.128 565.041 777.107 565.509 778.234C565.994 779.343 566.237 780.565 566.237 781.9C566.237 783.235 565.994 784.465 565.509 785.592C565.041 786.701 564.382 787.672 563.533 788.504C562.684 789.336 561.678 789.986 560.517 790.454C559.373 790.905 558.125 791.13 556.773 791.13ZM556.773 789.908C557.934 789.908 559.009 789.709 559.997 789.31C560.985 788.911 561.843 788.348 562.571 787.62C563.299 786.892 563.862 786.043 564.261 785.072C564.677 784.101 564.885 783.044 564.885 781.9C564.885 780.739 564.677 779.681 564.261 778.728C563.862 777.757 563.299 776.908 562.571 776.18C561.843 775.452 560.985 774.889 559.997 774.49C559.009 774.091 557.934 773.892 556.773 773.892C555.612 773.892 554.537 774.091 553.549 774.49C552.561 774.889 551.694 775.452 550.949 776.18C550.221 776.908 549.649 777.757 549.233 778.728C548.834 779.681 548.635 780.739 548.635 781.9C548.635 783.044 548.834 784.101 549.233 785.072C549.649 786.043 550.221 786.892 550.949 787.62C551.694 788.348 552.561 788.911 553.549 789.31C554.537 789.709 555.612 789.908 556.773 789.908Z" fill="#6D2323"/>
<path d="M590.514 791V772.8H597.04C598.565 772.8 599.874 773.043 600.966 773.528C602.058 774.013 602.898 774.715 603.488 775.634C604.077 776.535 604.372 777.636 604.372 778.936C604.372 780.201 604.077 781.293 603.488 782.212C602.898 783.131 602.058 783.833 600.966 784.318C599.874 784.803 598.565 785.046 597.04 785.046H591.242L591.84 784.422V791H590.514ZM591.84 784.5L591.242 783.85H597.04C598.998 783.85 600.48 783.425 601.486 782.576C602.508 781.709 603.02 780.496 603.02 778.936C603.02 777.359 602.508 776.145 601.486 775.296C600.48 774.429 598.998 773.996 597.04 773.996H591.242L591.84 773.346V784.5Z" fill="#6D2323"/>
<path d="M615.346 791V772.8H621.872C624.16 772.8 625.954 773.337 627.254 774.412C628.554 775.487 629.204 776.995 629.204 778.936C629.204 780.201 628.909 781.293 628.32 782.212C627.73 783.113 626.89 783.815 625.798 784.318C624.706 784.803 623.397 785.046 621.872 785.046H616.074L616.672 784.422V791H615.346ZM627.982 791L623.25 784.396H624.758L629.49 791H627.982ZM616.672 784.5L616.074 783.876H621.872C623.831 783.876 625.312 783.443 626.318 782.576C627.34 781.709 627.852 780.496 627.852 778.936C627.852 777.359 627.34 776.145 626.318 775.296C625.312 774.429 623.831 773.996 621.872 773.996H616.074L616.672 773.346V784.5Z" fill="#6D2323"/>
<path d="M648.281 791.13C646.929 791.13 645.672 790.905 644.511 790.454C643.367 789.986 642.361 789.336 641.495 788.504C640.645 787.655 639.987 786.675 639.519 785.566C639.051 784.439 638.817 783.217 638.817 781.9C638.817 780.583 639.051 779.369 639.519 778.26C639.987 777.133 640.645 776.154 641.495 775.322C642.361 774.473 643.367 773.823 644.511 773.372C645.672 772.904 646.929 772.67 648.281 772.67C649.633 772.67 650.881 772.904 652.025 773.372C653.186 773.823 654.191 774.464 655.041 775.296C655.89 776.128 656.549 777.107 657.017 778.234C657.502 779.343 657.745 780.565 657.745 781.9C657.745 783.235 657.502 784.465 657.017 785.592C656.549 786.701 655.89 787.672 655.041 788.504C654.191 789.336 653.186 789.986 652.025 790.454C650.881 790.905 649.633 791.13 648.281 791.13ZM648.281 789.908C649.442 789.908 650.517 789.709 651.505 789.31C652.493 788.911 653.351 788.348 654.079 787.62C654.807 786.892 655.37 786.043 655.769 785.072C656.185 784.101 656.393 783.044 656.393 781.9C656.393 780.739 656.185 779.681 655.769 778.728C655.37 777.757 654.807 776.908 654.079 776.18C653.351 775.452 652.493 774.889 651.505 774.49C650.517 774.091 649.442 773.892 648.281 773.892C647.119 773.892 646.045 774.091 645.057 774.49C644.069 774.889 643.202 775.452 642.457 776.18C641.729 776.908 641.157 777.757 640.741 778.728C640.342 779.681 640.143 780.739 640.143 781.9C640.143 783.044 640.342 784.101 640.741 785.072C641.157 786.043 641.729 786.892 642.457 787.62C643.202 788.348 644.069 788.911 645.057 789.31C646.045 789.709 647.119 789.908 648.281 789.908Z" fill="#6D2323"/>
<path d="M676.54 791.13C675.188 791.13 673.931 790.905 672.77 790.454C671.626 789.986 670.629 789.336 669.78 788.504C668.931 787.672 668.272 786.701 667.804 785.592C667.336 784.465 667.102 783.235 667.102 781.9C667.102 780.565 667.336 779.343 667.804 778.234C668.272 777.107 668.931 776.128 669.78 775.296C670.646 774.464 671.652 773.823 672.796 773.372C673.94 772.904 675.188 772.67 676.54 772.67C677.823 772.67 679.019 772.878 680.128 773.294C681.255 773.71 682.216 774.343 683.014 775.192L682.182 776.05C681.402 775.287 680.535 774.741 679.582 774.412C678.646 774.065 677.649 773.892 676.592 773.892C675.431 773.892 674.347 774.091 673.342 774.49C672.354 774.889 671.487 775.452 670.742 776.18C670.014 776.908 669.442 777.757 669.026 778.728C668.627 779.699 668.428 780.756 668.428 781.9C668.428 783.044 668.627 784.101 669.026 785.072C669.442 786.043 670.014 786.892 670.742 787.62C671.487 788.348 672.354 788.911 673.342 789.31C674.347 789.709 675.431 789.908 676.592 789.908C677.649 789.908 678.646 789.743 679.582 789.414C680.535 789.067 681.402 788.504 682.182 787.724L683.014 788.582C682.216 789.431 681.255 790.073 680.128 790.506C679.019 790.922 677.823 791.13 676.54 791.13Z" fill="#6D2323"/>
<path d="M693.701 791V772.8H705.869V773.996H695.027V789.804H706.259V791H693.701ZM694.871 782.342V781.172H704.725V782.342H694.871Z" fill="#6D2323"/>
<path d="M722.378 791.13C721.026 791.13 719.743 790.905 718.53 790.454C717.334 789.986 716.407 789.388 715.748 788.66L716.346 787.672C716.97 788.313 717.819 788.859 718.894 789.31C719.986 789.743 721.139 789.96 722.352 789.96C723.565 789.96 724.553 789.804 725.316 789.492C726.096 789.163 726.668 788.729 727.032 788.192C727.413 787.655 727.604 787.057 727.604 786.398C727.604 785.618 727.396 784.994 726.98 784.526C726.564 784.058 726.018 783.685 725.342 783.408C724.666 783.131 723.929 782.897 723.132 782.706C722.335 782.515 721.529 782.316 720.714 782.108C719.899 781.883 719.154 781.597 718.478 781.25C717.802 780.903 717.256 780.435 716.84 779.846C716.441 779.239 716.242 778.459 716.242 777.506C716.242 776.639 716.467 775.842 716.918 775.114C717.369 774.386 718.071 773.797 719.024 773.346C719.977 772.895 721.199 772.67 722.69 772.67C723.695 772.67 724.683 772.817 725.654 773.112C726.642 773.407 727.483 773.805 728.176 774.308L727.682 775.374C726.919 774.854 726.096 774.473 725.212 774.23C724.345 773.97 723.505 773.84 722.69 773.84C721.529 773.84 720.567 774.005 719.804 774.334C719.041 774.663 718.478 775.105 718.114 775.66C717.75 776.197 717.568 776.804 717.568 777.48C717.568 778.26 717.767 778.884 718.166 779.352C718.582 779.82 719.128 780.193 719.804 780.47C720.48 780.747 721.225 780.981 722.04 781.172C722.854 781.363 723.661 781.571 724.458 781.796C725.255 782.004 725.992 782.281 726.668 782.628C727.344 782.975 727.89 783.443 728.306 784.032C728.722 784.621 728.93 785.384 728.93 786.32C728.93 787.169 728.696 787.967 728.228 788.712C727.76 789.44 727.041 790.029 726.07 790.48C725.117 790.913 723.886 791.13 722.378 791.13Z" fill="#6D2323"/>
<path d="M744.722 791.13C743.37 791.13 742.087 790.905 740.874 790.454C739.678 789.986 738.75 789.388 738.092 788.66L738.69 787.672C739.314 788.313 740.163 788.859 741.238 789.31C742.33 789.743 743.482 789.96 744.696 789.96C745.909 789.96 746.897 789.804 747.66 789.492C748.44 789.163 749.012 788.729 749.376 788.192C749.757 787.655 749.948 787.057 749.948 786.398C749.948 785.618 749.74 784.994 749.324 784.526C748.908 784.058 748.362 783.685 747.686 783.408C747.01 783.131 746.273 782.897 745.476 782.706C744.678 782.515 743.872 782.316 743.058 782.108C742.243 781.883 741.498 781.597 740.822 781.25C740.146 780.903 739.6 780.435 739.184 779.846C738.785 779.239 738.586 778.459 738.586 777.506C738.586 776.639 738.811 775.842 739.262 775.114C739.712 774.386 740.414 773.797 741.368 773.346C742.321 772.895 743.543 772.67 745.034 772.67C746.039 772.67 747.027 772.817 747.998 773.112C748.986 773.407 749.826 773.805 750.52 774.308L750.026 775.374C749.263 774.854 748.44 774.473 747.556 774.23C746.689 773.97 745.848 773.84 745.034 773.84C743.872 773.84 742.91 774.005 742.148 774.334C741.385 774.663 740.822 775.105 740.458 775.66C740.094 776.197 739.912 776.804 739.912 777.48C739.912 778.26 740.111 778.884 740.51 779.352C740.926 779.82 741.472 780.193 742.148 780.47C742.824 780.747 743.569 780.981 744.384 781.172C745.198 781.363 746.004 781.571 746.802 781.796C747.599 782.004 748.336 782.281 749.012 782.628C749.688 782.975 750.234 783.443 750.65 784.032C751.066 784.621 751.274 785.384 751.274 786.32C751.274 787.169 751.04 787.967 750.572 788.712C750.104 789.44 749.384 790.029 748.414 790.48C747.46 790.913 746.23 791.13 744.722 791.13Z" fill="#6D2323"/>
<path d="M769.405 791.13C767.152 791.13 765.375 790.471 764.075 789.154C762.775 787.837 762.125 785.878 762.125 783.278V772.8H763.451V783.226C763.451 785.497 763.971 787.178 765.011 788.27C766.051 789.362 767.525 789.908 769.431 789.908C771.321 789.908 772.785 789.362 773.825 788.27C774.865 787.178 775.385 785.497 775.385 783.226V772.8H776.711V783.278C776.711 785.878 776.061 787.837 774.761 789.154C773.461 790.471 771.676 791.13 769.405 791.13Z" fill="#6D2323"/>
<path d="M785.976 791L794.348 772.8H795.674L804.046 791H802.616L794.712 773.632H795.284L787.406 791H785.976ZM789.044 785.878L789.486 784.76H800.38L800.822 785.878H789.044Z" fill="#6D2323"/>
<path d="M813.85 791V772.8H815.176V789.804H825.654V791H813.85Z" fill="#6D2323"/>
<path d="M856.432 791.13C855.08 791.13 853.824 790.905 852.662 790.454C851.518 789.986 850.522 789.336 849.672 788.504C848.823 787.672 848.164 786.701 847.696 785.592C847.228 784.465 846.994 783.235 846.994 781.9C846.994 780.565 847.228 779.343 847.696 778.234C848.164 777.107 848.823 776.128 849.672 775.296C850.539 774.464 851.544 773.823 852.688 773.372C853.832 772.904 855.08 772.67 856.432 772.67C857.715 772.67 858.911 772.878 860.02 773.294C861.147 773.71 862.109 774.343 862.906 775.192L862.074 776.05C861.294 775.287 860.428 774.741 859.474 774.412C858.538 774.065 857.542 773.892 856.484 773.892C855.323 773.892 854.24 774.091 853.234 774.49C852.246 774.889 851.38 775.452 850.634 776.18C849.906 776.908 849.334 777.757 848.918 778.728C848.52 779.699 848.32 780.756 848.32 781.9C848.32 783.044 848.52 784.101 848.918 785.072C849.334 786.043 849.906 786.892 850.634 787.62C851.38 788.348 852.246 788.911 853.234 789.31C854.24 789.709 855.323 789.908 856.484 789.908C857.542 789.908 858.538 789.743 859.474 789.414C860.428 789.067 861.294 788.504 862.074 787.724L862.906 788.582C862.109 789.431 861.147 790.073 860.02 790.506C858.911 790.922 857.715 791.13 856.432 791.13Z" fill="#6D2323"/>
<path d="M873.594 791V772.8H874.92V791H873.594Z" fill="#6D2323"/>
<path d="M892.477 791L884.365 772.8H885.821L893.569 790.194H892.763L900.537 772.8H901.915L893.803 791H892.477Z" fill="#6D2323"/>
<path d="M911.35 791V772.8H912.676V791H911.35Z" fill="#6D2323"/>
<path d="M925.518 791V772.8H926.844V789.804H937.322V791H925.518Z" fill="#6D2323"/>
</svg>
